<svg id="Layer_1" data-name="Layer 1" xmlns="http://www.w3.org/2000/svg" xmlns:xlink="http://www.w3.org/1999/xlink" viewBox="0 0 795.43 611.19"><defs><style>.cls-1,.cls-2{fill:none;}.cls-2{stroke-miterlimit:10;stroke:url(#_ÂÁ_Ï_ÌÌ_È_ËÂÌÚ_22);}.cls-21,.cls-3,.cls-55{fill:#42ffff;}.cls-4{opacity:0.3;}.cls-5{fill:#fff;}.cls-6,.cls-9{fill:#242993;}.cls-30,.cls-55,.cls-6{opacity:0.5;}.cls-7{fill:url(#_ÂÁ_Ï_ÌÌ_È_ËÂÌÚ_19);}.cls-8{fill:url(#_ÂÁ_Ï_ÌÌ_È_ËÂÌÚ_28);}.cls-10{fill:#4553c7;}.cls-11{fill:url(#_ÂÁ_Ï_ÌÌ_È_ËÂÌÚ_19-2);}.cls-12{fill:url(#_ÂÁ_Ï_ÌÌ_È_ËÂÌÚ_28-2);}.cls-13{fill:url(#_ÂÁ_Ï_ÌÌ_È_ËÂÌÚ_19-3);}.cls-14{fill:url(#_ÂÁ_Ï_ÌÌ_È_ËÂÌÚ_28-3);}.cls-15{fill:url(#_ÂÁ_Ï_ÌÌ_È_ËÂÌÚ_19-4);}.cls-16{fill:url(#_ÂÁ_Ï_ÌÌ_È_ËÂÌÚ_28-4);}.cls-17{fill:url(#_ÂÁ_Ï_ÌÌ_È_ËÂÌÚ_19-5);}.cls-18{fill:url(#_ÂÁ_Ï_ÌÌ_È_ËÂÌÚ_28-5);}.cls-19{fill:url(#_ÂÁ_Ï_ÌÌ_È_ËÂÌÚ_19-6);}.cls-20{fill:url(#_ÂÁ_Ï_ÌÌ_È_ËÂÌÚ_28-6);}.cls-21{opacity:0.4;}.cls-22{fill:url(#_ÂÁ_Ï_ÌÌ_È_ËÂÌÚ_19-7);}.cls-23{fill:url(#_ÂÁ_Ï_ÌÌ_È_ËÂÌÚ_28-8);}.cls-24{fill:url(#_ÂÁ_Ï_ÌÌ_È_ËÂÌÚ_19-8);}.cls-25{fill:url(#_ÂÁ_Ï_ÌÌ_È_ËÂÌÚ_28-9);}.cls-26{fill:url(#_ÂÁ_Ï_ÌÌ_È_ËÂÌÚ_19-9);}.cls-27{fill:url(#_ÂÁ_Ï_ÌÌ_È_ËÂÌÚ_28-11);}.cls-28{fill:url(#_ÂÁ_Ï_ÌÌ_È_ËÂÌÚ_22-2);}.cls-29{fill:url(#_ÂÁ_Ï_ÌÌ_È_ËÂÌÚ_22-3);}.cls-31{fill:url(#_ÂÁ_Ï_ÌÌ_È_ËÂÌÚ_24);}.cls-32{opacity:0.51;}.cls-33{fill:#453c9e;}.cls-34{fill:url(#_ÂÁ_Ï_ÌÌ_È_ËÂÌÚ_3);}.cls-35{fill:url(#_ÂÁ_Ï_ÌÌ_È_ËÂÌÚ_4);}.cls-36{fill:url(#_ÂÁ_Ï_ÌÌ_È_ËÂÌÚ_3-2);}.cls-37{fill:url(#_ÂÁ_Ï_ÌÌ_È_ËÂÌÚ_39);}.cls-38{fill:url(#_ÂÁ_Ï_ÌÌ_È_ËÂÌÚ_24-2);}.cls-39{fill:url(#_ÂÁ_Ï_ÌÌ_È_ËÂÌÚ_39-2);}.cls-40{fill:#24126a;}.cls-41{fill:url(#_ÂÁ_Ï_ÌÌ_È_ËÂÌÚ_24-3);}.cls-42{fill:#e9e9fd;}.cls-43{fill:url(#_ÂÁ_Ï_ÌÌ_È_ËÂÌÚ_28-12);}.cls-44{fill:url(#_ÂÁ_Ï_ÌÌ_È_ËÂÌÚ_29);}.cls-45{fill:url(#_ÂÁ_Ï_ÌÌ_È_ËÂÌÚ_29-2);}.cls-46{fill:url(#_ÂÁ_Ï_ÌÌ_È_ËÂÌÚ_28-13);}.cls-47{fill:#2859cb;}.cls-48{fill:#adc8ff;}.cls-49{fill:#91afff;}.cls-50{fill:url(#_ÂÁ_Ï_ÌÌ_È_ËÂÌÚ_28-14);}.cls-51{opacity:0.11;}.cls-52{clip-path:url(#clip-path);}.cls-53{fill:url(#_ÂÁ_Ï_ÌÌ_È_ËÂÌÚ_28-15);}.cls-54{fill:url(#_ÂÁ_Ï_ÌÌ_È_ËÂÌÚ_28-16);}.cls-56{fill:url(#_ÂÁ_Ï_ÌÌ_È_ËÂÌÚ_24-4);}.cls-57{fill:url(#_ÂÁ_Ï_ÌÌ_È_ËÂÌÚ_3-3);}.cls-58{fill:url(#_ÂÁ_Ï_ÌÌ_È_ËÂÌÚ_3-4);}.cls-59{fill:#5761d7;}.cls-60{fill:#bcbeff;}.cls-61{fill:url(#_ÂÁ_Ï_ÌÌ_È_ËÂÌÚ_19-10);}.cls-62{fill:url(#_ÂÁ_Ï_ÌÌ_È_ËÂÌÚ_28-17);}</style><linearGradient id="_ÂÁ_Ï_ÌÌ_È_ËÂÌÚ_22" x1="681.11" y1="365.33" x2="324.22" y2="571.38" gradientUnits="userSpaceOnUse"><stop offset="0" stop-color="#5761d7"/><stop offset="0.07" stop-color="#5472d8"/><stop offset="0.28" stop-color="#4e9cdb"/><stop offset="0.48" stop-color="#49bddd"/><stop offset="0.67" stop-color="#45d5df"/><stop offset="0.85" stop-color="#43e3e0"/><stop offset="1" stop-color="#42e8e0"/></linearGradient><linearGradient id="_ÂÁ_Ï_ÌÌ_È_ËÂÌÚ_19" x1="762.25" y1="24.59" x2="668.58" y2="99.71" gradientUnits="userSpaceOnUse"><stop offset="0" stop-color="#bcd5ff"/><stop offset="0.15" stop-color="#a3beff"/><stop offset="0.39" stop-color="#82a0ff"/><stop offset="0.61" stop-color="#6a8aff"/><stop offset="0.82" stop-color="#5c7dff"/><stop offset="1" stop-color="#5778ff"/></linearGradient><linearGradient id="_ÂÁ_Ï_ÌÌ_È_ËÂÌÚ_28" x1="70.93" y1="304.28" x2="-14.23" y2="372.56" gradientTransform="matrix(0.87, 0.5, -1, 0.58, 1022.82, -163.65)" gradientUnits="userSpaceOnUse"><stop offset="0" stop-color="#c0d6ff"/><stop offset="0.3" stop-color="#c5dbff"/><stop offset="0.65" stop-color="#d3e9ff"/><stop offset="1" stop-color="#e9ffff"/></linearGradient><linearGradient id="_ÂÁ_Ï_ÌÌ_È_ËÂÌÚ_19-2" x1="542.67" y1="132.71" x2="449" y2="207.83" xlink:href="#_ÂÁ_Ï_ÌÌ_È_ËÂÌÚ_19"/><linearGradient id="_ÂÁ_Ï_ÌÌ_È_ËÂÌÚ_28-2" x1="52.26" y1="507.7" x2="-32.89" y2="575.98" xlink:href="#_ÂÁ_Ï_ÌÌ_È_ËÂÌÚ_28"/><linearGradient id="_ÂÁ_Ï_ÌÌ_È_ËÂÌÚ_19-3" x1="457.24" y1="77.99" x2="363.57" y2="153.1" xlink:href="#_ÂÁ_Ï_ÌÌ_È_ËÂÌÚ_19"/><linearGradient id="_ÂÁ_Ï_ÌÌ_È_ËÂÌÚ_28-3" x1="-51.79" y1="503.02" x2="-136.94" y2="571.3" xlink:href="#_ÂÁ_Ï_ÌÌ_È_ËÂÌÚ_28"/><linearGradient id="_ÂÁ_Ï_ÌÌ_È_ËÂÌÚ_19-4" x1="198.29" y1="394.34" x2="104.62" y2="469.45" xlink:href="#_ÂÁ_Ï_ÌÌ_È_ËÂÌÚ_19"/><linearGradient id="_ÂÁ_Ï_ÌÌ_È_ËÂÌÚ_28-4" x1="115.04" y1="906.44" x2="29.88" y2="974.73" xlink:href="#_ÂÁ_Ï_ÌÌ_È_ËÂÌÚ_28"/><linearGradient id="_ÂÁ_Ï_ÌÌ_È_ËÂÌÚ_19-5" x1="126.35" y1="349.96" x2="32.68" y2="425.08" xlink:href="#_ÂÁ_Ï_ÌÌ_È_ËÂÌÚ_19"/><linearGradient id="_ÂÁ_Ï_ÌÌ_È_ËÂÌÚ_28-5" x1="29.12" y1="903.98" x2="-56.03" y2="972.27" xlink:href="#_ÂÁ_Ï_ÌÌ_È_ËÂÌÚ_28"/><linearGradient id="_ÂÁ_Ï_ÌÌ_È_ËÂÌÚ_19-6" x1="777.03" y1="232.7" x2="683.35" y2="307.81" xlink:href="#_ÂÁ_Ï_ÌÌ_È_ËÂÌÚ_19"/><linearGradient id="_ÂÁ_Ï_ÌÌ_È_ËÂÌÚ_28-6" x1="287.55" y1="477.11" x2="202.4" y2="545.39" xlink:href="#_ÂÁ_Ï_ÌÌ_È_ËÂÌÚ_28"/><linearGradient id="_ÂÁ_Ï_ÌÌ_È_ËÂÌÚ_19-7" x1="777.03" y1="208.05" x2="683.35" y2="283.17" xlink:href="#_ÂÁ_Ï_ÌÌ_È_ËÂÌÚ_19"/><linearGradient id="_ÂÁ_Ï_ÌÌ_È_ËÂÌÚ_28-8" x1="262.91" y1="455.77" x2="177.76" y2="524.05" xlink:href="#_ÂÁ_Ï_ÌÌ_È_ËÂÌÚ_28"/><linearGradient id="_ÂÁ_Ï_ÌÌ_È_ËÂÌÚ_19-8" x1="279.62" y1="437.69" x2="185.94" y2="512.81" xlink:href="#_ÂÁ_Ï_ÌÌ_È_ËÂÌÚ_19"/><linearGradient id="_ÂÁ_Ï_ÌÌ_È_ËÂÌÚ_28-9" x1="205.35" y1="903.33" x2="120.2" y2="971.61" xlink:href="#_ÂÁ_Ï_ÌÌ_È_ËÂÌÚ_28"/><linearGradient id="_ÂÁ_Ï_ÌÌ_È_ËÂÌÚ_19-9" x1="279.62" y1="413.05" x2="185.94" y2="488.16" xlink:href="#_ÂÁ_Ï_ÌÌ_È_ËÂÌÚ_19"/><linearGradient id="_ÂÁ_Ï_ÌÌ_È_ËÂÌÚ_28-11" x1="180.7" y1="881.98" x2="95.55" y2="950.27" xlink:href="#_ÂÁ_Ï_ÌÌ_È_ËÂÌÚ_28"/><linearGradient id="_ÂÁ_Ï_ÌÌ_È_ËÂÌÚ_22-2" x1="1175.3" y1="506.9" x2="1342.21" y2="603.26" gradientTransform="matrix(-1, 0, 0, 1, 1839.04, 0)" xlink:href="#_ÂÁ_Ï_ÌÌ_È_ËÂÌÚ_22"/><linearGradient id="_ÂÁ_Ï_ÌÌ_È_ËÂÌÚ_22-3" x1="1589.42" y1="135" x2="1756.33" y2="231.37" gradientTransform="matrix(-1, 0, 0, 1, 1839.04, 0)" xlink:href="#_ÂÁ_Ï_ÌÌ_È_ËÂÌÚ_22"/><linearGradient id="_ÂÁ_Ï_ÌÌ_È_ËÂÌÚ_24" x1="165.72" y1="198.63" x2="165.72" y2="5.91" gradientUnits="userSpaceOnUse"><stop offset="0" stop-color="#5761d7"/><stop offset="0.18" stop-color="#5c66d9"/><stop offset="0.39" stop-color="#6a73df"/><stop offset="0.61" stop-color="#8289e8"/><stop offset="0.85" stop-color="#a3a7f5"/><stop offset="1" stop-color="#bcbeff"/></linearGradient><linearGradient id="_ÂÁ_Ï_ÌÌ_È_ËÂÌÚ_3" x1="162.58" y1="198.63" x2="162.58" y2="11.32" gradientUnits="userSpaceOnUse"><stop offset="0" stop-color="#c0bff6"/><stop offset="0.29" stop-color="#c5c4f7"/><stop offset="0.64" stop-color="#d3d2f9"/><stop offset="1" stop-color="#e9e9fd"/></linearGradient><linearGradient id="_ÂÁ_Ï_ÌÌ_È_ËÂÌÚ_4" x1="190.26" y1="196.67" x2="190.26" y2="24.2" gradientUnits="userSpaceOnUse"><stop offset="0" stop-color="#bcbeff"/><stop offset="0.15" stop-color="#a3a7f5"/><stop offset="0.39" stop-color="#8289e8"/><stop offset="0.61" stop-color="#6a73df"/><stop offset="0.82" stop-color="#5c66d9"/><stop offset="1" stop-color="#5761d7"/></linearGradient><linearGradient id="_ÂÁ_Ï_ÌÌ_È_ËÂÌÚ_3-2" x1="144.79" y1="152.97" x2="144.79" y2="9.07" gradientTransform="matrix(0.87, -0.5, 0, 1.15, 62.73, 91.09)" xlink:href="#_ÂÁ_Ï_ÌÌ_È_ËÂÌÚ_3"/><linearGradient id="_ÂÁ_Ï_ÌÌ_È_ËÂÌÚ_39" x1="121.43" y1="192.08" x2="121.43" y2="84.36" gradientUnits="userSpaceOnUse"><stop offset="0" stop-color="#c0bff6"/><stop offset="0.2" stop-color="#c5c4f7"/><stop offset="0.45" stop-color="#d3d2f9"/><stop offset="0.7" stop-color="#e9e9fd"/></linearGradient><linearGradient id="_ÂÁ_Ï_ÌÌ_È_ËÂÌÚ_24-2" x1="88.7" y1="379.04" x2="88.7" y2="310.66" gradientTransform="matrix(0.87, 0.5, 0, 1.15, 41.74, -302.97)" xlink:href="#_ÂÁ_Ï_ÌÌ_È_ËÂÌÚ_24"/><linearGradient id="_ÂÁ_Ï_ÌÌ_È_ËÂÌÚ_39-2" x1="118.51" y1="189.74" x2="118.51" y2="89.13" xlink:href="#_ÂÁ_Ï_ÌÌ_È_ËÂÌÚ_39"/><linearGradient id="_ÂÁ_Ï_ÌÌ_È_ËÂÌÚ_24-3" x1="147.46" y1="158.91" x2="147.46" y2="146.26" xlink:href="#_ÂÁ_Ï_ÌÌ_È_ËÂÌÚ_24"/><linearGradient id="_ÂÁ_Ï_ÌÌ_È_ËÂÌÚ_28-12" x1="-1491.43" y1="198.66" x2="-1260.92" y2="198.66" gradientTransform="translate(1768.31)" xlink:href="#_ÂÁ_Ï_ÌÌ_È_ËÂÌÚ_28"/><linearGradient id="_ÂÁ_Ï_ÌÌ_È_ËÂÌÚ_29" x1="-1491.43" y1="257.78" x2="-1451.85" y2="257.78" gradientTransform="translate(1768.31)" gradientUnits="userSpaceOnUse"><stop offset="0" stop-color="#5778ff"/><stop offset="0.18" stop-color="#5c7dff"/><stop offset="0.39" stop-color="#6a8aff"/><stop offset="0.61" stop-color="#82a0ff"/><stop offset="0.85" stop-color="#a3beff"/><stop offset="1" stop-color="#bcd5ff"/></linearGradient><linearGradient id="_ÂÁ_Ï_ÌÌ_È_ËÂÌÚ_29-2" x1="-1460.55" y1="324.23" x2="-1134.99" y2="324.23" xlink:href="#_ÂÁ_Ï_ÌÌ_È_ËÂÌÚ_29"/><linearGradient id="_ÂÁ_Ï_ÌÌ_È_ËÂÌÚ_28-13" x1="-1351.16" y1="313.38" x2="-1025.43" y2="313.38" gradientTransform="translate(1768.31)" xlink:href="#_ÂÁ_Ï_ÌÌ_È_ËÂÌÚ_28"/><linearGradient id="_ÂÁ_Ï_ÌÌ_È_ËÂÌÚ_28-14" x1="-1296" y1="331.87" x2="-1212.62" y2="331.87" gradientTransform="translate(1768.31)" xlink:href="#_ÂÁ_Ï_ÌÌ_È_ËÂÌÚ_28"/><clipPath id="clip-path" transform="translate(-7.28 -5.91)"><polygon id="SVGID" class="cls-1" points="479.57 73.8 287.23 184.85 311.08 325.47 503.29 214.49 479.57 73.8"/></clipPath><linearGradient id="_ÂÁ_Ï_ÌÌ_È_ËÂÌÚ_28-15" x1="-1475.61" y1="241.18" x2="-1149.88" y2="241.18" gradientTransform="translate(1768.31)" xlink:href="#_ÂÁ_Ï_ÌÌ_È_ËÂÌÚ_28"/><linearGradient id="_ÂÁ_Ï_ÌÌ_È_ËÂÌÚ_28-16" x1="-1497.05" y1="217.27" x2="-1413.67" y2="217.27" gradientTransform="translate(1768.31)" xlink:href="#_ÂÁ_Ï_ÌÌ_È_ËÂÌÚ_28"/><linearGradient id="_ÂÁ_Ï_ÌÌ_È_ËÂÌÚ_24-4" x1="585.7" y1="582.12" x2="585.7" y2="354.07" xlink:href="#_ÂÁ_Ï_ÌÌ_È_ËÂÌÚ_24"/><linearGradient id="_ÂÁ_Ï_ÌÌ_È_ËÂÌÚ_3-3" x1="554.82" y1="414.86" x2="554.82" y2="398.52" xlink:href="#_ÂÁ_Ï_ÌÌ_È_ËÂÌÚ_3"/><linearGradient id="_ÂÁ_Ï_ÌÌ_È_ËÂÌÚ_3-4" x1="681.03" y1="962.58" x2="681.03" y2="807.85" gradientTransform="matrix(0.87, -0.5, 0, 1.15, 0.66, -210.97)" xlink:href="#_ÂÁ_Ï_ÌÌ_È_ËÂÌÚ_3"/><linearGradient id="_ÂÁ_Ï_ÌÌ_È_ËÂÌÚ_19-10" x1="748.15" y1="455.97" x2="654.47" y2="531.08" gradientTransform="translate(-9.28 13.7) rotate(-1.1)" xlink:href="#_ÂÁ_Ï_ÌÌ_È_ËÂÌÚ_19"/><linearGradient id="_ÂÁ_Ï_ÌÌ_È_ËÂÌÚ_28-17" x1="494.14" y1="684.89" x2="408.99" y2="753.18" gradientTransform="matrix(0.88, 0.48, -0.99, 0.6, 1010.19, -169.64)" xlink:href="#_ÂÁ_Ï_ÌÌ_È_ËÂÌÚ_28"/></defs><title>02_ilustra</title><path class="cls-2" d="M737.5,463,497.82,600.59a10.55,10.55,0,0,1-5.24,1.23,13.59,13.59,0,0,1-6.64-1.68L268.09,473.28" transform="translate(-7.28 -5.91)"/><rect class="cls-3" x="250.7" y="424.5" width="162.49" height="1.34" transform="translate(-179.6 227.75) rotate(-31.22)"/><g class="cls-4"><path class="cls-3" d="M657.57,340.41a.84.84,0,0,1-.42-.12L494,246.08c-3-1.73-4.66-4.09-4.66-6.64s1.65-4.9,4.66-6.64l106.27-61.35c2.47-1.42,3.82-3.27,3.82-5.19s-1.36-3.77-3.82-5.2L420.31,57.18c-5.42-3.13-14.24-3.13-19.66,0L340.3,92c-2.47,1.43-3.83,3.27-3.83,5.2s1.36,3.76,3.83,5.19L430,154.2c3,1.74,4.66,4.1,4.66,6.64s-1.65,4.91-4.66,6.64L295.88,244.92c-5.88,3.4-15.45,3.4-21.33,0L133.8,163.17a.84.84,0,0,1,.83-1.45l140.75,81.76c5.42,3.13,14.24,3.12,19.66,0L429.17,166c2.47-1.43,3.83-3.27,3.83-5.2s-1.36-3.76-3.83-5.19l-89.71-51.79c-3-1.74-4.66-4.1-4.66-6.64s1.66-4.91,4.66-6.64l60.36-34.85c5.88-3.4,15.45-3.4,21.33,0L601.08,159.62c3,1.73,4.67,4.09,4.67,6.64s-1.66,4.9-4.67,6.64L494.81,234.25c-2.46,1.43-3.82,3.27-3.82,5.19s1.36,3.77,3.82,5.2L658,338.85a.84.84,0,0,1,.31,1.14A.85.85,0,0,1,657.57,340.41Z" transform="translate(-7.28 -5.91)"/><path class="cls-5" d="M557.29,277.77a.82.82,0,0,1-.72-.42.83.83,0,0,1,.3-1.14l158.39-91.44c3.4-2,5.27-4.52,5.27-7.21s-1.87-5.25-5.27-7.21L563.35,82.65c-7.35-4.24-19.3-4.24-26.64,0l-34,19.6a.84.84,0,0,1-1.14-.3.83.83,0,0,1,.3-1.14l34-19.61c7.81-4.51,20.51-4.51,28.31,0l151.91,87.7c3.94,2.28,6.11,5.35,6.11,8.66s-2.17,6.38-6.11,8.66L557.71,277.66A.91.91,0,0,1,557.29,277.77Z" transform="translate(-7.28 -5.91)"/><path class="cls-5" d="M570.64,488.67a.84.84,0,0,1-.42-1.56L728.6,395.67c3.41-2,5.28-4.52,5.28-7.21s-1.87-5.25-5.28-7.21l-151.9-87.7c-7.35-4.24-19.3-4.24-26.64,0l-34,19.6a.83.83,0,1,1-.84-1.44l34-19.61c7.8-4.51,20.51-4.51,28.31,0l151.91,87.7c3.94,2.28,6.11,5.35,6.11,8.66s-2.17,6.38-6.11,8.66L571.06,488.56A.8.8,0,0,1,570.64,488.67Z" transform="translate(-7.28 -5.91)"/><path class="cls-5" d="M241.53,522.79a24.5,24.5,0,0,1-12-2.87L12.5,394.63c-3.36-1.94-5.22-4.57-5.22-7.41s1.86-5.48,5.22-7.42l74-42.74c6.63-3.82,17.4-3.82,24,0L164.07,368a.84.84,0,0,1-.84,1.45l-53.52-30.9c-6.16-3.56-16.19-3.55-22.35,0l-74,42.74C10.51,382.88,9,385,9,387.22s1.55,4.34,4.38,6l217,125.29c6.16,3.55,16.19,3.55,22.35,0L533.51,356.35a.84.84,0,0,1,.84,1.45L253.54,519.92A24.47,24.47,0,0,1,241.53,522.79Z" transform="translate(-7.28 -5.91)"/><path class="cls-5" d="M178.15,377.89a.8.8,0,0,1-.42-.11l-4.23-2.44a.84.84,0,1,1,.83-1.45l4.24,2.45a.83.83,0,0,1,.3,1.14A.81.81,0,0,1,178.15,377.89Z" transform="translate(-7.28 -5.91)"/><path class="cls-5" d="M193.45,386.73a.94.94,0,0,1-.42-.11l-5.28-3.06a.83.83,0,1,1,.83-1.44l5.29,3.05a.84.84,0,0,1,.31,1.14A.85.85,0,0,1,193.45,386.73Z" transform="translate(-7.28 -5.91)"/><path class="cls-5" d="M449.16,460.73a.77.77,0,0,1-.41-.11l-46.67-26.94a.84.84,0,0,1,.84-1.45l46.66,26.94a.84.84,0,0,1,.31,1.14A.85.85,0,0,1,449.16,460.73Z" transform="translate(-7.28 -5.91)"/><path class="cls-5" d="M321.58,164.37a.86.86,0,0,1-.73-.41.85.85,0,0,1,.31-1.15l61.46-35.48a.83.83,0,1,1,.84,1.44L322,164.26A.83.83,0,0,1,321.58,164.37Z" transform="translate(-7.28 -5.91)"/><path class="cls-5" d="M322.2,180H294.52a.85.85,0,0,1-.84-.84v-16a.83.83,0,0,1,.25-.59.82.82,0,0,1,.59-.25H322.2a.84.84,0,0,1,.83.84v16A.84.84,0,0,1,322.2,180Zm-26.85-1.68h26V164h-26Z" transform="translate(-7.28 -5.91)"/><path class="cls-5" d="M679.77,111.63H652.09a.84.84,0,0,1-.84-.84v-16a.83.83,0,0,1,.84-.83h27.68a.83.83,0,0,1,.83.83v16A.84.84,0,0,1,679.77,111.63ZM652.92,110h26V95.65h-26Z" transform="translate(-7.28 -5.91)"/><path class="cls-5" d="M476.84,476.71H449.17a.83.83,0,0,1-.84-.83v-16a.84.84,0,0,1,.83-.84h27.68a.84.84,0,0,1,.84.84v16A.84.84,0,0,1,476.84,476.71ZM450,475h26V460.73H450Z" transform="translate(-7.28 -5.91)"/><path class="cls-5" d="M248.14,485.7a30.23,30.23,0,0,1-14.81-3.53c-4.11-2.38-6.38-5.58-6.38-9s2.27-6.66,6.38-9c8.16-4.71,21.45-4.71,29.61,0h0c4.11,2.37,6.38,5.58,6.38,9s-2.27,6.65-6.38,9A30.22,30.22,0,0,1,248.14,485.7Zm0-23.48a28.48,28.48,0,0,0-14,3.34c-3.58,2.06-5.55,4.75-5.55,7.58s2,5.52,5.55,7.58c7.7,4.45,20.23,4.45,27.93,0,3.58-2.06,5.55-4.75,5.55-7.58s-2-5.52-5.55-7.58A28.49,28.49,0,0,0,248.13,462.22Z" transform="translate(-7.28 -5.91)"/><path class="cls-5" d="M196.42,455.85a30.29,30.29,0,0,1-14.81-3.54c-4.11-2.37-6.37-5.58-6.37-9s2.26-6.65,6.37-9c8.17-4.71,21.45-4.71,29.61,0h0c4.12,2.38,6.38,5.58,6.38,9s-2.26,6.66-6.38,9A30.22,30.22,0,0,1,196.42,455.85Zm0-23.49a28.49,28.49,0,0,0-14,3.34c-3.57,2.06-5.54,4.75-5.54,7.58s2,5.52,5.54,7.58c7.7,4.45,20.24,4.45,27.94,0,3.57-2.06,5.54-4.75,5.54-7.58s-2-5.52-5.54-7.58h0A28.6,28.6,0,0,0,196.42,432.36Z" transform="translate(-7.28 -5.91)"/><path class="cls-5" d="M144.7,426a30.22,30.22,0,0,1-14.8-3.54c-4.11-2.37-6.38-5.58-6.38-9s2.27-6.65,6.38-9c8.16-4.71,21.44-4.71,29.61,0,4.11,2.38,6.37,5.58,6.37,9s-2.26,6.66-6.37,9A30.26,30.26,0,0,1,144.7,426Zm0-23.49a28.6,28.6,0,0,0-14,3.34c-3.57,2.06-5.54,4.76-5.54,7.58s2,5.52,5.54,7.59c7.71,4.44,20.24,4.44,27.94,0,3.58-2.07,5.54-4.76,5.54-7.59s-2-5.52-5.54-7.58h0A28.6,28.6,0,0,0,144.7,402.5Z" transform="translate(-7.28 -5.91)"/><path class="cls-5" d="M93,396.13a30.23,30.23,0,0,1-14.81-3.54c-4.11-2.37-6.38-5.58-6.38-9s2.27-6.65,6.38-9c8.16-4.71,21.45-4.71,29.61,0h0c4.11,2.38,6.38,5.58,6.38,9s-2.27,6.66-6.38,9A30.22,30.22,0,0,1,93,396.13Zm0-23.48A28.6,28.6,0,0,0,79,376c-3.58,2.06-5.54,4.76-5.54,7.58s2,5.52,5.54,7.59c7.7,4.44,20.23,4.44,27.94,0,3.57-2.07,5.54-4.76,5.54-7.59s-2-5.52-5.54-7.58A28.63,28.63,0,0,0,93,372.65Z" transform="translate(-7.28 -5.91)"/><path class="cls-5" d="M107.37,376.09a.83.83,0,0,1-.41-1.56L140.78,355a.84.84,0,0,1,1.14.31.82.82,0,0,1-.3,1.14L107.79,376A.78.78,0,0,1,107.37,376.09Z" transform="translate(-7.28 -5.91)"/><path class="cls-5" d="M292.8,497.13a.81.81,0,0,1-.42-.12l-28-16.38a.86.86,0,0,1-.3-1.15.85.85,0,0,1,1.15-.3l28,16.39a.84.84,0,0,1,.3,1.15A.83.83,0,0,1,292.8,497.13Z" transform="translate(-7.28 -5.91)"/></g><path class="cls-6" d="M708.58,101.34,652.76,69.11c-1.21-.7-1.06-1.92.34-2.73l16.4-9.47,60.2,34.77-16.4,9.46A5.23,5.23,0,0,1,708.58,101.34Z" transform="translate(-7.28 -5.91)"/><path class="cls-7" d="M787.93,57.47V46.35H769.82l-40.2-23.2a4.27,4.27,0,0,0-3.85.16l-40,23.1h-18V57.58h0a1.13,1.13,0,0,0,.65.93L726.05,91.8a4.34,4.34,0,0,0,3.85-.16l57.1-33A1.65,1.65,0,0,0,787.93,57.47Z" transform="translate(-7.28 -5.91)"/><path class="cls-8" d="M726.05,80.67,668.39,47.38c-1-.57-.86-1.56.28-2.22l57.1-33a4.27,4.27,0,0,1,3.85-.16l57.66,33.29c1,.57.86,1.57-.28,2.22l-57.1,33A4.27,4.27,0,0,1,726.05,80.67Z" transform="translate(-7.28 -5.91)"/><path class="cls-9" d="M726.25,76.77l-51.11-29.5c-.87-.51-.76-1.39.25-2L726,16.07a3.83,3.83,0,0,1,3.42-.14l51.1,29.51c.88.5.77,1.39-.24,2L729.66,76.63A3.78,3.78,0,0,1,726.25,76.77Z" transform="translate(-7.28 -5.91)"/><path class="cls-10" d="M726.38,74.3l-47-27.11c-.8-.46-.7-1.27.23-1.81l46.5-26.85a3.53,3.53,0,0,1,3.14-.13l47,27.11c.81.47.7,1.28-.22,1.81L729.51,74.17A3.44,3.44,0,0,1,726.38,74.3Z" transform="translate(-7.28 -5.91)"/><polygon class="cls-3" points="719.47 38.68 713.98 35.51 716.98 33.78 722.47 36.95 719.47 38.68"/><polygon class="cls-3" points="729.67 38.23 724.18 41.4 721.19 39.67 726.68 36.5 729.67 38.23"/><polygon class="cls-3" points="718.22 39.4 715.23 41.13 712.23 39.4 715.23 37.67 718.22 39.4"/><polygon class="cls-3" points="728.59 45.38 725.59 47.11 716.94 42.12 719.94 40.39 728.59 45.38"/><path class="cls-6" d="M489,209.46l-55.82-32.23c-1.21-.7-1.06-1.92.34-2.73l16.4-9.47,60.2,34.77-16.4,9.46A5.23,5.23,0,0,1,489,209.46Z" transform="translate(-7.28 -5.91)"/><path class="cls-11" d="M568.35,165.6V154.47H550.24L510,131.28a4.27,4.27,0,0,0-3.85.16l-40,23.1h-18V165.7h0a1.13,1.13,0,0,0,.65.93l57.66,33.29a4.3,4.3,0,0,0,3.85-.16l57.1-33A1.63,1.63,0,0,0,568.35,165.6Z" transform="translate(-7.28 -5.91)"/><path class="cls-12" d="M506.47,188.79,448.81,155.5c-1-.57-.86-1.56.28-2.22l57.1-33a4.3,4.3,0,0,1,3.85-.16l57.66,33.29c1,.57.86,1.57-.28,2.22l-57.1,33A4.27,4.27,0,0,1,506.47,188.79Z" transform="translate(-7.28 -5.91)"/><path class="cls-9" d="M506.67,184.89l-51.11-29.5c-.87-.51-.76-1.39.25-2l50.62-29.23a3.81,3.81,0,0,1,3.41-.14l51.1,29.51c.88.5.77,1.39-.24,2l-50.62,29.22A3.75,3.75,0,0,1,506.67,184.89Z" transform="translate(-7.28 -5.91)"/><path class="cls-10" d="M506.8,182.42l-47-27.11c-.8-.46-.7-1.27.23-1.81l46.5-26.85a3.53,3.53,0,0,1,3.14-.13l46.95,27.11c.81.47.7,1.28-.22,1.81l-46.51,26.85A3.44,3.44,0,0,1,506.8,182.42Z" transform="translate(-7.28 -5.91)"/><polygon class="cls-3" points="499.89 146.8 494.4 143.63 497.4 141.9 502.89 145.07 499.89 146.8"/><polygon class="cls-3" points="510.1 146.35 504.61 149.52 501.61 147.79 507.1 144.62 510.1 146.35"/><polygon class="cls-3" points="498.64 147.52 495.65 149.25 492.65 147.52 495.65 145.79 498.64 147.52"/><polygon class="cls-3" points="509.01 153.5 506.01 155.24 497.36 150.24 500.36 148.51 509.01 153.5"/><path class="cls-6" d="M403.57,154.73,347.75,122.5c-1.21-.7-1.06-1.92.34-2.72l16.4-9.47,60.21,34.76-16.41,9.47A5.26,5.26,0,0,1,403.57,154.73Z" transform="translate(-7.28 -5.91)"/><path class="cls-13" d="M482.93,110.87V99.75H464.81l-40.2-23.21a4.27,4.27,0,0,0-3.85.16l-40,23.1-18,0V111h0a1.15,1.15,0,0,0,.65.92L421,145.19a4.27,4.27,0,0,0,3.85-.16l57.1-33A1.65,1.65,0,0,0,482.93,110.87Z" transform="translate(-7.28 -5.91)"/><path class="cls-14" d="M421,134.06l-57.66-33.28c-1-.57-.86-1.57.28-2.23l57.1-33a4.27,4.27,0,0,1,3.85-.16l57.66,33.28c1,.57.86,1.57-.28,2.23l-57.1,33A4.3,4.3,0,0,1,421,134.06Z" transform="translate(-7.28 -5.91)"/><path class="cls-9" d="M421.24,130.17l-51.11-29.51c-.87-.51-.76-1.39.25-2L421,69.47a3.78,3.78,0,0,1,3.41-.15l51.11,29.51c.87.51.76,1.39-.25,2L424.65,130A3.78,3.78,0,0,1,421.24,130.17Z" transform="translate(-7.28 -5.91)"/><path class="cls-10" d="M421.37,127.69l-46.95-27.11c-.81-.46-.71-1.27.22-1.8l46.51-26.85a3.44,3.44,0,0,1,3.13-.13l47,27.11c.81.46.71,1.27-.22,1.81l-46.5,26.84A3.46,3.46,0,0,1,421.37,127.69Z" transform="translate(-7.28 -5.91)"/><polygon class="cls-3" points="414.46 92.07 408.97 88.9 411.97 87.17 417.46 90.34 414.46 92.07"/><polygon class="cls-3" points="424.67 91.63 419.18 94.8 416.18 93.06 421.67 89.89 424.67 91.63"/><polygon class="cls-3" points="413.22 92.79 410.22 94.53 407.22 92.79 410.22 91.06 413.22 92.79"/><polygon class="cls-3" points="423.58 98.78 420.58 100.51 411.93 95.52 414.93 93.78 423.58 98.78"/><path class="cls-6" d="M144.62,471.08,88.79,438.85c-1.21-.69-1.06-1.92.34-2.72l16.4-9.47,60.21,34.76-16.4,9.47A5.23,5.23,0,0,1,144.62,471.08Z" transform="translate(-7.28 -5.91)"/><path class="cls-15" d="M224,427.22V416.1H205.85L165.66,392.9a4.27,4.27,0,0,0-3.85.16l-40,23.11h-18v11.15h0a1.17,1.17,0,0,0,.66.92l57.66,33.29a4.25,4.25,0,0,0,3.84-.16l57.11-33A1.62,1.62,0,0,0,224,427.22Z" transform="translate(-7.28 -5.91)"/><path class="cls-16" d="M162.09,450.42l-57.66-33.29c-1-.57-.87-1.57.27-2.22l57.11-33a4.27,4.27,0,0,1,3.85-.16l57.65,33.29c1,.57.87,1.56-.27,2.22l-57.11,33A4.28,4.28,0,0,1,162.09,450.42Z" transform="translate(-7.28 -5.91)"/><path class="cls-9" d="M162.29,446.52,111.18,417c-.87-.5-.76-1.39.24-2L162,385.82a3.75,3.75,0,0,1,3.41-.14l51.11,29.5c.88.51.77,1.39-.24,2L165.7,446.38A3.81,3.81,0,0,1,162.29,446.52Z" transform="translate(-7.28 -5.91)"/><path class="cls-10" d="M162.42,444.05l-47-27.11c-.8-.47-.7-1.28.23-1.81l46.5-26.85a3.44,3.44,0,0,1,3.13-.13l47,27.11c.8.46.7,1.27-.23,1.81l-46.5,26.85A3.5,3.5,0,0,1,162.42,444.05Z" transform="translate(-7.28 -5.91)"/><polygon class="cls-3" points="155.51 408.43 150.02 405.26 153.01 403.52 158.51 406.69 155.51 408.43"/><polygon class="cls-3" points="165.71 407.98 160.22 411.15 157.22 409.42 162.71 406.25 165.71 407.98"/><polygon class="cls-3" points="154.26 409.15 151.26 410.88 148.26 409.15 151.26 407.42 154.26 409.15"/><polygon class="cls-3" points="164.62 415.13 161.63 416.86 152.98 411.87 155.98 410.14 164.62 415.13"/><path class="cls-6" d="M72.68,426.71,16.85,394.48c-1.21-.7-1.06-1.92.34-2.73l16.4-9.47L93.8,417l-16.4,9.47A5.23,5.23,0,0,1,72.68,426.71Z" transform="translate(-7.28 -5.91)"/><path class="cls-17" d="M152,382.84V371.72H133.91l-40.2-23.21a4.25,4.25,0,0,0-3.84.16l-40,23.11h-18V383h0a1.15,1.15,0,0,0,.66.92l57.66,33.29A4.25,4.25,0,0,0,94,417l57.11-33A1.62,1.62,0,0,0,152,382.84Z" transform="translate(-7.28 -5.91)"/><path class="cls-18" d="M90.15,406,32.49,372.75c-1-.57-.87-1.56.27-2.22l57.11-33a4.25,4.25,0,0,1,3.84-.16l57.66,33.29c1,.57.87,1.56-.27,2.22L94,405.88A4.25,4.25,0,0,1,90.15,406Z" transform="translate(-7.28 -5.91)"/><path class="cls-9" d="M90.35,402.14,39.24,372.63c-.88-.5-.77-1.38.24-2L90.1,341.44a3.78,3.78,0,0,1,3.41-.14l51.11,29.51c.88.5.77,1.38-.24,2L93.76,402A3.81,3.81,0,0,1,90.35,402.14Z" transform="translate(-7.28 -5.91)"/><path class="cls-10" d="M90.48,399.67l-47-27.11c-.8-.47-.7-1.28.23-1.81l46.5-26.85a3.47,3.47,0,0,1,3.13-.13l47,27.11c.8.46.7,1.27-.23,1.81l-46.5,26.85A3.5,3.5,0,0,1,90.48,399.67Z" transform="translate(-7.28 -5.91)"/><polygon class="cls-3" points="83.57 364.05 78.08 360.88 81.07 359.15 86.56 362.32 83.57 364.05"/><polygon class="cls-3" points="93.77 363.6 88.28 366.77 85.28 365.04 90.77 361.87 93.77 363.6"/><polygon class="cls-3" points="82.32 364.77 79.32 366.5 76.32 364.77 79.32 363.04 82.32 364.77"/><polygon class="cls-3" points="92.68 370.75 89.68 372.48 81.04 367.49 84.04 365.76 92.68 370.75"/><path class="cls-3" d="M780.89,268.76l-80.62-46.55-42.84-24.47a14.76,14.76,0,0,0-14.81.12l-92.41,54.86-.68-1.14,92.41-54.86a16.08,16.08,0,0,1,16.15-.14l42.85,24.47,80.62,46.55Z" transform="translate(-7.28 -5.91)"/><path class="cls-6" d="M723.35,309.44l-55.82-32.23c-1.21-.69-1.06-1.92.34-2.72l16.4-9.47,60.21,34.76-16.4,9.47A5.25,5.25,0,0,1,723.35,309.44Z" transform="translate(-7.28 -5.91)"/><path class="cls-19" d="M802.71,265.58V254.46H784.59l-40.2-23.21a4.27,4.27,0,0,0-3.85.16l-40,23.1-18,0v11.15h0a1.15,1.15,0,0,0,.65.92l57.66,33.29a4.27,4.27,0,0,0,3.85-.16l57.1-33A1.61,1.61,0,0,0,802.71,265.58Z" transform="translate(-7.28 -5.91)"/><path class="cls-20" d="M740.82,288.78l-57.66-33.29c-1-.57-.86-1.57.28-2.22l57.1-33a4.27,4.27,0,0,1,3.85-.16l57.66,33.29c1,.57.86,1.56-.28,2.22l-57.1,33A4.3,4.3,0,0,1,740.82,288.78Z" transform="translate(-7.28 -5.91)"/><path class="cls-20" d="M740.82,288.78l-57.66-33.29c-1-.57-.86-1.57.28-2.22l57.1-33a4.27,4.27,0,0,1,3.85-.16l57.66,33.29c1,.57.86,1.56-.28,2.22l-57.1,33A4.3,4.3,0,0,1,740.82,288.78Z" transform="translate(-7.28 -5.91)"/><path class="cls-9" d="M741,284.88l-51.11-29.51c-.88-.5-.77-1.39.24-2l50.62-29.22a3.75,3.75,0,0,1,3.41-.14l51.11,29.5c.87.51.76,1.39-.25,2l-50.61,29.23A3.81,3.81,0,0,1,741,284.88Z" transform="translate(-7.28 -5.91)"/><path class="cls-10" d="M741.15,282.41,694.2,255.3c-.8-.47-.7-1.28.22-1.81l46.51-26.85a3.44,3.44,0,0,1,3.13-.13l47,27.11c.8.46.7,1.27-.23,1.81l-46.5,26.85A3.53,3.53,0,0,1,741.15,282.41Z" transform="translate(-7.28 -5.91)"/><polygon class="cls-3" points="734.24 246.79 728.75 243.62 731.75 241.88 737.24 245.05 734.24 246.79"/><polygon class="cls-3" points="744.45 246.34 738.96 249.51 735.96 247.78 741.45 244.61 744.45 246.34"/><polygon class="cls-3" points="733 247.5 730 249.24 727 247.5 730 245.77 733 247.5"/><polygon class="cls-3" points="743.36 253.49 740.36 255.22 731.72 250.23 734.71 248.5 743.36 253.49"/><path class="cls-21" d="M802.72,239.5l-24.53.15-33.8-19.51a4.27,4.27,0,0,0-3.85.16l-34.26,19.78-23.78.14v14.45h0a1.19,1.19,0,0,0,.64.82l57.66,33.29a4.3,4.3,0,0,0,3.85-.16l57.1-33a1.77,1.77,0,0,0,.91-1l0,0Z" transform="translate(-7.28 -5.91)"/><path class="cls-22" d="M802.71,240.93V229.81H784.59l-40.2-23.2a4.3,4.3,0,0,0-3.85.15l-40,23.11h-18V241h0a1.16,1.16,0,0,0,.65.93l57.66,33.28a4.27,4.27,0,0,0,3.85-.16l57.1-33A1.64,1.64,0,0,0,802.71,240.93Z" transform="translate(-7.28 -5.91)"/><path class="cls-23" d="M740.82,264.13l-57.66-33.29c-1-.57-.86-1.56.28-2.22l57.1-33a4.27,4.27,0,0,1,3.85-.16l57.66,33.29c1,.57.86,1.56-.28,2.22l-57.1,33A4.27,4.27,0,0,1,740.82,264.13Z" transform="translate(-7.28 -5.91)"/><path class="cls-9" d="M741,260.23l-51.11-29.51c-.88-.5-.77-1.38.24-2l50.62-29.23a3.81,3.81,0,0,1,3.41-.14L795.3,228.9c.87.5.76,1.38-.25,2l-50.61,29.22A3.78,3.78,0,0,1,741,260.23Z" transform="translate(-7.28 -5.91)"/><path class="cls-10" d="M741.15,257.76,694.2,230.65c-.8-.46-.7-1.27.22-1.81L740.93,202a3.5,3.5,0,0,1,3.13-.13L791,229c.8.47.7,1.28-.23,1.81l-46.5,26.85A3.49,3.49,0,0,1,741.15,257.76Z" transform="translate(-7.28 -5.91)"/><polygon class="cls-3" points="734.24 222.14 728.75 218.97 731.75 217.24 737.24 220.41 734.24 222.14"/><polygon class="cls-3" points="744.45 221.69 738.96 224.86 735.96 223.13 741.45 219.96 744.45 221.69"/><polygon class="cls-3" points="733 222.86 730 224.59 727 222.86 730 221.13 733 222.86"/><polygon class="cls-3" points="743.36 228.84 740.36 230.57 731.72 225.58 734.71 223.85 743.36 228.84"/><path class="cls-6" d="M212,522.67l-55.82-32.23c-1.21-.7-1.06-1.92.34-2.73L186.86,470l60.21,34.77-30.34,17.7A5.28,5.28,0,0,1,212,522.67Z" transform="translate(-7.28 -5.91)"/><path class="cls-24" d="M305.3,470.58V459.45H287.18L247,436.26a4.27,4.27,0,0,0-3.85.16l-40,23.1h-18v11.15h0a1.16,1.16,0,0,0,.65.93l57.66,33.29a4.3,4.3,0,0,0,3.85-.16l57.1-33A1.62,1.62,0,0,0,305.3,470.58Z" transform="translate(-7.28 -5.91)"/><path class="cls-25" d="M243.41,493.77l-57.66-33.29c-1-.57-.86-1.56.28-2.22l57.1-33a4.3,4.3,0,0,1,3.85-.16l57.66,33.29c1,.57.86,1.57-.28,2.22l-57.1,33A4.27,4.27,0,0,1,243.41,493.77Z" transform="translate(-7.28 -5.91)"/><path class="cls-25" d="M243.41,493.77l-57.66-33.29c-1-.57-.86-1.56.28-2.22l57.1-33a4.3,4.3,0,0,1,3.85-.16l57.66,33.29c1,.57.86,1.57-.28,2.22l-57.1,33A4.27,4.27,0,0,1,243.41,493.77Z" transform="translate(-7.28 -5.91)"/><path class="cls-9" d="M243.61,489.87l-51.1-29.5c-.88-.51-.77-1.39.24-2l50.62-29.23a3.81,3.81,0,0,1,3.41-.14l51.11,29.51c.87.5.76,1.39-.25,2L247,489.73A3.77,3.77,0,0,1,243.61,489.87Z" transform="translate(-7.28 -5.91)"/><path class="cls-10" d="M243.74,487.4l-47-27.11c-.81-.46-.7-1.27.22-1.81l46.51-26.85a3.5,3.5,0,0,1,3.13-.13l47,27.11c.8.47.7,1.28-.23,1.81l-46.5,26.85A3.46,3.46,0,0,1,243.74,487.4Z" transform="translate(-7.28 -5.91)"/><polygon class="cls-3" points="236.83 451.78 231.34 448.61 234.34 446.88 239.83 450.05 236.83 451.78"/><polygon class="cls-3" points="247.04 451.33 241.55 454.5 238.55 452.77 244.04 449.6 247.04 451.33"/><polygon class="cls-3" points="235.59 452.5 232.59 454.23 229.59 452.5 232.59 450.77 235.59 452.5"/><polygon class="cls-3" points="245.95 458.48 242.95 460.21 234.31 455.22 237.3 453.49 245.95 458.48"/><path class="cls-21" d="M305.31,444.5l-24.53.15L247,425.13a4.3,4.3,0,0,0-3.85.16l-34.26,19.78-23.78.14v14.45h0a1.18,1.18,0,0,0,.64.81l57.66,33.29a4.27,4.27,0,0,0,3.85-.16l57.1-33a1.78,1.78,0,0,0,.91-1l0,0Z" transform="translate(-7.28 -5.91)"/><path class="cls-26" d="M305.3,445.93V434.81H287.18L247,411.61a4.27,4.27,0,0,0-3.85.16l-40,23.11h-18V446h0a1.15,1.15,0,0,0,.65.92l57.66,33.29a4.27,4.27,0,0,0,3.85-.16l57.1-33A1.61,1.61,0,0,0,305.3,445.93Z" transform="translate(-7.28 -5.91)"/><path class="cls-27" d="M243.41,469.13l-57.66-33.29c-1-.57-.86-1.57.28-2.22l57.1-33a4.27,4.27,0,0,1,3.85-.16l57.66,33.29c1,.57.86,1.56-.28,2.22l-57.1,33A4.27,4.27,0,0,1,243.41,469.13Z" transform="translate(-7.28 -5.91)"/><path class="cls-9" d="M243.61,465.23l-51.1-29.51c-.88-.5-.77-1.39.24-2l50.62-29.22a3.78,3.78,0,0,1,3.41-.14l51.11,29.5c.87.51.76,1.39-.25,2L247,465.09A3.83,3.83,0,0,1,243.61,465.23Z" transform="translate(-7.28 -5.91)"/><path class="cls-10" d="M243.74,462.76l-47-27.11c-.81-.47-.7-1.28.22-1.81L243.52,407a3.44,3.44,0,0,1,3.13-.13l47,27.11c.8.46.7,1.27-.23,1.81l-46.5,26.85A3.53,3.53,0,0,1,243.74,462.76Z" transform="translate(-7.28 -5.91)"/><polygon class="cls-3" points="236.83 427.14 231.34 423.97 234.34 422.24 239.83 425.4 236.83 427.14"/><polygon class="cls-3" points="247.04 426.69 241.55 429.86 238.55 428.13 244.04 424.96 247.04 426.69"/><polygon class="cls-3" points="235.59 427.86 232.59 429.59 229.59 427.86 232.59 426.13 235.59 427.86"/><polygon class="cls-3" points="245.95 433.84 242.95 435.57 234.31 430.58 237.3 428.85 245.95 433.84"/><path class="cls-28" d="M568.36,617.09A8.91,8.91,0,0,1,564,616l-88.55-51.12a3.57,3.57,0,0,1-2.08-2.91,2.79,2.79,0,0,1,1.57-2.37l113.83-65.72a8.55,8.55,0,0,1,7.81.3l88.54,51.12a3.55,3.55,0,0,1,2.08,2.91,2.77,2.77,0,0,1-1.57,2.37L571.8,616.29A7,7,0,0,1,568.36,617.09ZM592.2,494.41a5.6,5.6,0,0,0-2.76.62L475.61,560.75a1.53,1.53,0,0,0-.91,1.21c0,.59.53,1.24,1.42,1.76l88.54,51.12a7.3,7.3,0,0,0,6.47.29l.34.58-.34-.58L685,549.41a1.54,1.54,0,0,0,.9-1.21c0-.59-.53-1.24-1.42-1.76l-88.54-51.12A7.72,7.72,0,0,0,592.2,494.41Z" transform="translate(-7.28 -5.91)"/><path class="cls-29" d="M154.24,245.2a9,9,0,0,1-4.37-1.1L61.33,193a3.59,3.59,0,0,1-2.09-2.91,2.77,2.77,0,0,1,1.57-2.37L174.65,122a8.53,8.53,0,0,1,7.8.3L271,173.4a3.57,3.57,0,0,1,2.08,2.9,2.76,2.76,0,0,1-1.57,2.37L157.68,244.39A6.92,6.92,0,0,1,154.24,245.2Zm23.83-122.68a5.66,5.66,0,0,0-2.76.62L61.48,188.86a1.52,1.52,0,0,0-.9,1.21c0,.58.53,1.24,1.41,1.75l88.55,51.12a7.31,7.31,0,0,0,6.47.3l.33.58-.33-.58,113.83-65.72a1.54,1.54,0,0,0,.9-1.22c0-.58-.53-1.24-1.41-1.75l-88.55-51.12A7.69,7.69,0,0,0,178.07,122.52Z" transform="translate(-7.28 -5.91)"/><g class="cls-30"><path class="cls-9" d="M144.77,226.43l-34.7-20c-3.23-1.87-2.83-5.13.91-7.29l52.4-30.26c3.74-2.16,9.4-2.39,12.63-.52l34.7,20c3.24,1.87,2.84,5.14-.9,7.29L157.4,225.91C153.67,228.07,148,228.3,144.77,226.43Z" transform="translate(-7.28 -5.91)"/></g><path class="cls-31" d="M225.8,24.69,199.58,9.58l0,0-.21-.12h0c-9.95-5.6-23.6-4.74-38.65,4-30.35,17.52-55,60.28-55,95.32v39.07c0,17.52,6.17,29.84,16.13,35.59h0l26.59,15.26-5-12.32a56.57,56.57,0,0,0,17.31-6.76c30.34-17.52,55-60.28,55-95.31V45.16a57.52,57.52,0,0,0-2.33-16.9ZM209,49.05V88.13c0,30.74-21.67,68.27-48.29,83.64-7.35,4.24-14.32,6.35-20.56,6.55l-1.06-2.61-2.81-32-.65-31.47,9.08-29,13-23.56,19.45-21,28.47-8.17A47,47,0,0,1,209,49.05Z" transform="translate(-7.28 -5.91)"/><g class="cls-32"><path class="cls-33" d="M148.21,198.25l-8.46-4.85h0c-10-5.75-16.14-18.07-16.14-35.59V118.73c0-35,24.69-77.79,55-95.31,13.44-7.76,25.75-9.26,35.32-5.52l-5-2.9,0,0-.2-.11h0c-9.94-5.61-23.6-4.74-38.65,3.95-30.34,17.52-55,60.28-55,95.31V153.2c0,16.92,5.77,29,15.14,35l18.25,10.47Z" transform="translate(-7.28 -5.91)"/></g><path class="cls-34" d="M131.84,189.13c-9.37-6-15.14-18-15.14-35V115.1c0-35,24.68-77.8,55-95.32,15-8.64,28.53-9.54,38.46-4L208.92,15l0,0-.2-.11h0c-9.94-5.61-23.6-4.74-38.65,3.95-30.34,17.52-55,60.28-55,95.31V153.2c0,16.92,5.77,29,15.14,35l18.25,10.47v0Z" transform="translate(-7.28 -5.91)"/><path class="cls-35" d="M235.52,42.79,223.42,31l-10-2.6a40.86,40.86,0,0,0-1.5-4.17,42,42,0,0,1-7.65,3.58c3,5.53,4.71,12.69,4.71,21.27V88.13c0,30.74-21.67,68.27-48.29,83.64-7.29,4.21-14.2,6.31-20.4,6.54-.12,2.84-.41,5.69-.45,8.53a40.89,40.89,0,0,0,4.22-.66l9.64,10.49H170.1l20.61-6.62,16-14.7,22.48-28.53L240.71,114V65.84Z" transform="translate(-7.28 -5.91)"/><path class="cls-36" d="M188.12,195.33c-30.35,17.52-55,3.27-55-31.77V124.49c0-35,24.69-77.8,55-95.32s55-3.27,55,31.77V100C243.15,135.05,218.46,177.81,188.12,195.33Zm0-158.38c-26.63,15.38-48.3,52.9-48.3,83.65v39.07c0,30.74,21.67,43.25,48.3,27.88s48.29-52.9,48.29-83.65V64.83C236.41,34.09,214.74,21.58,188.12,37Z" transform="translate(-7.28 -5.91)"/><path class="cls-37" d="M144.88,110.44,100.64,84.9a2.89,2.89,0,0,0-3.08-.18h0l-4.17,2.41,2.73.3a7.06,7.06,0,0,0-.07,1V155.1c0,3.38,2.06,7.3,4.59,8.76L144.09,189l-.93.34.5,2.79,4.12-2.38h0c1-.52,1.68-1.85,1.68-3.76V119.21C149.46,115.83,147.41,111.91,144.88,110.44Z" transform="translate(-7.28 -5.91)"/><path class="cls-38" d="M140.67,191.83,96.43,166.29c-2.53-1.46-4.58-5.38-4.58-8.76V90.8c0-3.38,2.05-4.93,4.58-3.47l44.24,25.54c2.53,1.47,4.59,5.39,4.59,8.77v66.72C145.26,191.74,143.2,193.29,140.67,191.83Z" transform="translate(-7.28 -5.91)"/><path class="cls-39" d="M139.48,113.86,97.55,89.65a2.75,2.75,0,0,0-2.93-.17h0l-1.31.77,2.59.28a6.62,6.62,0,0,0-.06.91L93.2,156.2c0,3.2,1.94,6.92,4.35,8.31l43.83,22.27-.88.32.47,2.64,1.27-.74h0c1-.51,1.59-1.76,1.59-3.57V122.17C143.83,119,141.88,115.25,139.48,113.86Z" transform="translate(-7.28 -5.91)"/><path class="cls-40" d="M138.13,189.51,96.2,165.3c-2.41-1.39-4.35-5.11-4.35-8.31V93.73c0-3.2,1.94-4.67,4.35-3.29l41.93,24.22c2.4,1.38,4.35,5.1,4.35,8.3v63.26C142.48,189.43,140.53,190.9,138.13,189.51Z" transform="translate(-7.28 -5.91)"/><g class="cls-32"><path class="cls-33" d="M135.92,184.28,98.41,162.63c-2.15-1.24-3.89-4.57-3.89-7.44V98.61c0-2.86,1.74-4.18,3.89-2.94l37.51,21.66c2.15,1.24,3.89,4.57,3.89,7.43v56.58C139.81,184.2,138.07,185.52,135.92,184.28Z" transform="translate(-7.28 -5.91)"/></g><path class="cls-41" d="M147.29,146.47l.15-.09a.65.65,0,0,1,.65-.06h0l.58.33-.28,0a1.4,1.4,0,0,1,.08.49v9.28a2.47,2.47,0,0,1-1,2l-.15.09-.21.09.15.32-.62-.36h0a.89.89,0,0,1-.36-.83v-9.29A2.45,2.45,0,0,1,147.29,146.47Z" transform="translate(-7.28 -5.91)"/><path class="cls-42" d="M147.87,158.84l.16-.09a2.5,2.5,0,0,0,1-2v-9.29c0-.76-.47-1.11-1-.78l-.16.09a2.47,2.47,0,0,0-1,2v9.29C146.84,158.82,147.3,159.16,147.87,158.84Z" transform="translate(-7.28 -5.91)"/><g class="cls-32"><path class="cls-33" d="M138.13,114.66,96.2,90.44c-2.41-1.38-4.35.09-4.35,3.29v61.21l50.63-22.48V123C142.48,119.76,140.53,116,138.13,114.66Z" transform="translate(-7.28 -5.91)"/></g><g class="cls-32"><polygon class="cls-33" points="201.68 61.68 229.12 77.52 229.12 74.25 201.68 58.4 201.68 61.68"/></g><g class="cls-32"><polygon class="cls-33" points="235.86 70.36 229.12 74.25 229.12 77.52 235.86 73.63 235.86 70.36"/></g><g class="cls-30"><path class="cls-9" d="M513.16,260.38,326.33,368.25a2.43,2.43,0,0,0,0,4.21l103.74,59.9a15.23,15.23,0,0,0,15.23,0L624.52,328.88a2.42,2.42,0,0,0,0-4.2Z" transform="translate(-7.28 -5.91)"/></g><path class="cls-43" d="M507.34,213l-25-148.13,2-.84-3-1.73h0a2.18,2.18,0,0,0-2.32.16L279.5,177.68a5.67,5.67,0,0,0-2.59,5.07l25.17,149.31a1.9,1.9,0,0,0,1.05,1.52h0l2.95,1.7.51-2.75-.17.05L504.75,218.07A5.63,5.63,0,0,0,507.34,213Z" transform="translate(-7.28 -5.91)"/><path class="cls-44" d="M280.62,181.73l-3.28-1.45a4.56,4.56,0,0,0-.43,2.47l25.17,149.31a1.9,1.9,0,0,0,1.05,1.52h0l2.95,1.7.51-2.75-.17.05,10-5.8Z" transform="translate(-7.28 -5.91)"/><path class="cls-9" d="M507.88,219.87,308.34,335.07c-1.54.89-2.86.38-3.13-1.22L280,184.54a5.64,5.64,0,0,1,2.6-5.06L482.18,64.27c1.54-.89,2.86-.38,3.13,1.22L510.47,214.8A5.64,5.64,0,0,1,507.88,219.87Z" transform="translate(-7.28 -5.91)"/><g class="cls-32"><polygon class="cls-10" points="472.29 67.89 279.94 178.94 303.8 319.56 496.01 208.59 472.29 67.89"/></g><path class="cls-45" d="M633.32,290.55l-10.89,5.69-109.2-63a7.88,7.88,0,0,0-7.12.29L317.77,342.23c-1.8-1-10-5-10-5l4,10.38h0a2.4,2.4,0,0,0,1.11,1.24l115,66.39A7.88,7.88,0,0,0,435,415L627.72,303.71a3.45,3.45,0,0,0,1.62-1.72h0Z" transform="translate(-7.28 -5.91)"/><path class="cls-46" d="M631.63,292.34l-197.51,114a8.13,8.13,0,0,1-7.31.3L309,338.63c-1.87-1.08-1.64-3,.53-4.21L507,220.38a8.11,8.11,0,0,1,7.3-.3l117.87,68C634,289.21,633.8,291.1,631.63,292.34Z" transform="translate(-7.28 -5.91)"/><path class="cls-47" d="M374.54,381.71v-2.17c0-.2.13-.3.28-.21l7.64,4.41a.66.66,0,0,1,.28.54v2.16c0,.21-.12.3-.28.21l-7.64-4.41A.67.67,0,0,1,374.54,381.71Z" transform="translate(-7.28 -5.91)"/><path class="cls-47" d="M386,388.31v-2.17c0-.2.12-.3.28-.21l7.64,4.41a.68.68,0,0,1,.28.53V393c0,.2-.13.3-.28.21l-7.64-4.41A.66.66,0,0,1,386,388.31Z" transform="translate(-7.28 -5.91)"/><path class="cls-48" d="M339.68,332.26,503.81,237.5a3.5,3.5,0,0,1,3.54,0l58.45,33.81a1.27,1.27,0,0,1,0,2.19L401.74,368.21a3.49,3.49,0,0,1-3.53,0l-58.53-33.77A1.26,1.26,0,0,1,339.68,332.26Z" transform="translate(-7.28 -5.91)"/><path class="cls-49" d="M339.68,334.44l.59.34,163.54-94.42a3.55,3.55,0,0,1,3.54,0l57.86,33.47.59-.33a1.27,1.27,0,0,0,0-2.19L507.35,237.5a3.5,3.5,0,0,0-3.54,0L339.68,332.26A1.26,1.26,0,0,0,339.68,334.44Z" transform="translate(-7.28 -5.91)"/><polygon class="cls-9" points="504.48 240.16 361.9 322.47 355.56 318.81 498.14 236.5 504.48 240.16"/><polygon class="cls-9" points="520.02 249.13 386.29 326.34 379.95 322.68 513.68 245.47 520.02 249.13"/><polygon class="cls-9" points="530.14 254.97 372.69 345.88 366.35 342.22 523.8 251.31 530.14 254.97"/><polygon class="cls-9" points="540.26 260.82 382.81 351.72 376.47 348.06 533.92 257.16 540.26 260.82"/><polygon class="cls-9" points="550.39 266.66 392.94 357.57 386.6 353.91 544.05 263 550.39 266.66"/><polygon class="cls-9" points="353.29 327.45 346.95 331.11 340.61 327.45 346.95 323.79 353.29 327.45"/><polygon class="cls-9" points="375.65 332.48 362.49 340.08 356.15 336.42 369.31 328.82 375.65 332.48"/><path class="cls-50" d="M510.13,355.19l44.26-25.55c1.73-1,1.73-2.62,0-3.62l-30.26-17.47a6.93,6.93,0,0,0-6.27,0L473.61,334.1c-1.73,1-1.73,2.62,0,3.62l30.26,17.47A6.91,6.91,0,0,0,510.13,355.19Z" transform="translate(-7.28 -5.91)"/><path class="cls-49" d="M473.61,335.58,517.86,310a6.93,6.93,0,0,1,6.27,0l30.26,17.47a2.8,2.8,0,0,1,1.09,1.07c.45-.87.11-1.86-1.09-2.55l-30.26-17.47a6.93,6.93,0,0,0-6.27,0L473.61,334.1c-1.2.69-1.55,1.68-1.09,2.55A2.67,2.67,0,0,1,473.61,335.58Z" transform="translate(-7.28 -5.91)"/><g class="cls-51"><g class="cls-52"><path class="cls-53" d="M507.18,220.15l-197.51,114a8.11,8.11,0,0,1-7.3.3L184.5,266.43c-1.87-1.08-1.64-3,.53-4.21l197.51-114a8.11,8.11,0,0,1,7.3-.3l117.87,68.05C509.58,217,509.35,218.9,507.18,220.15Z" transform="translate(-7.28 -5.91)"/><path class="cls-54" d="M309.08,240.59,353.34,215c1.73-1,1.73-2.62,0-3.62L323.07,194a6.91,6.91,0,0,0-6.26,0L272.55,219.5c-1.73,1-1.73,2.62,0,3.62l30.27,17.47A6.91,6.91,0,0,0,309.08,240.59Z" transform="translate(-7.28 -5.91)"/><path class="cls-49" d="M272.55,221l44.26-25.55a6.91,6.91,0,0,1,6.26,0l30.27,17.47a2.8,2.8,0,0,1,1.09,1.07c.45-.87.1-1.86-1.09-2.55L323.07,194a6.91,6.91,0,0,0-6.26,0L272.55,219.5c-1.19.69-1.54,1.68-1.08,2.55A2.7,2.7,0,0,1,272.55,221Z" transform="translate(-7.28 -5.91)"/><path class="cls-48" d="M253.1,280.52l164.13-94.76a3.55,3.55,0,0,1,3.54,0l58.45,33.82a1.26,1.26,0,0,1,0,2.18L315.16,316.48a3.53,3.53,0,0,1-3.53,0L253.1,282.7A1.26,1.26,0,0,1,253.1,280.52Z" transform="translate(-7.28 -5.91)"/><path class="cls-49" d="M253.1,282.7l.59.34,163.54-94.42a3.55,3.55,0,0,1,3.54,0l57.86,33.48.59-.34a1.26,1.26,0,0,0,0-2.18l-58.45-33.82a3.55,3.55,0,0,0-3.54,0L253.1,280.52A1.26,1.26,0,0,0,253.1,282.7Z" transform="translate(-7.28 -5.91)"/><polygon class="cls-9" points="456.64 211.37 313.65 293.92 319.31 297.19 462.3 214.63 456.64 211.37"/><polygon class="cls-9" points="441.57 202.67 305.66 281.13 311.33 284.4 447.24 205.94 441.57 202.67"/><polygon class="cls-9" points="295.51 286.99 282.82 294.32 288.49 297.59 301.18 290.26 295.51 286.99"/><polygon class="cls-9" points="306.73 297.92 297.89 303.02 303.55 306.29 312.39 301.19 306.73 297.92"/><polygon class="cls-9" points="432.13 197.22 273.38 288.87 279.05 292.14 437.8 200.49 432.13 197.22"/><polygon class="cls-9" points="422.69 191.77 263.94 283.42 269.6 286.69 428.36 195.04 422.69 191.77"/><polygon class="cls-9" points="413.25 186.32 254.5 277.97 260.16 281.24 418.92 189.59 413.25 186.32"/></g></g><polygon class="cls-55" points="358.91 154.03 369.08 148.25 368.73 146.05 358.56 151.83 358.91 154.03"/><polygon class="cls-55" points="353.69 157 357.36 154.91 357.01 152.71 353.35 154.79 353.69 157"/><polygon class="cls-55" points="349.65 159.29 352.14 157.88 351.8 155.68 349.31 157.09 349.65 159.29"/><polygon class="cls-55" points="364.33 156.42 369.87 153.27 369.52 151.07 363.98 154.22 364.33 156.42"/><polygon class="cls-55" points="355.98 161.17 362.77 157.31 362.43 155.11 355.64 158.97 355.98 161.17"/><polygon class="cls-55" points="351.94 163.47 354.43 162.05 354.08 159.85 351.6 161.27 351.94 163.47"/><polygon class="cls-55" points="348.1 165.65 350.58 164.24 350.24 162.04 347.75 163.45 348.1 165.65"/><polygon class="cls-3" points="366.65 160.58 370.66 158.3 370.31 156.1 366.3 158.38 366.65 160.58"/><polygon class="cls-3" points="363.73 162.24 365.1 161.46 364.75 159.26 363.38 160.04 363.73 162.24"/><polygon class="cls-55" points="359.68 164.54 362.17 163.12 361.83 160.92 359.34 162.34 359.68 164.54"/><polygon class="cls-55" points="356.65 171.74 371.45 163.32 371.1 161.12 356.31 169.54 356.65 171.74"/><polygon class="cls-55" points="351.44 174.7 355.1 172.62 354.75 170.42 351.09 172.5 351.44 174.7"/><polygon class="cls-55" points="368.23 170.63 372.24 168.34 371.89 166.15 367.88 168.43 368.23 170.63"/><polygon class="cls-55" points="358.82 175.98 366.67 171.51 366.33 169.31 358.47 173.78 358.82 175.98"/><polygon class="cls-55" points="354.78 178.27 357.27 176.86 356.92 174.66 354.43 176.07 354.78 178.27"/><polygon class="cls-55" points="364.82 178.03 373.02 173.37 372.68 171.17 364.48 175.84 364.82 178.03"/><polygon class="cls-3" points="357.34 182.29 363.27 178.92 362.92 176.72 356.99 180.09 357.34 182.29"/><polygon class="cls-55" points="351.78 185.46 355.79 183.18 355.44 180.97 351.43 183.25 351.78 185.46"/><polygon class="cls-55" points="371.05 179.97 373.81 178.4 373.47 176.19 370.7 177.77 371.05 179.97"/><polygon class="cls-55" points="365.83 182.94 369.49 180.85 369.15 178.65 365.48 180.74 365.83 182.94"/><polygon class="cls-55" points="358.38 187.17 364.28 183.82 363.93 181.62 358.03 184.97 358.38 187.17"/><polygon class="cls-55" points="366.12 188.25 374.6 183.42 374.26 181.22 365.77 186.05 366.12 188.25"/><polygon class="cls-55" points="356.61 193.65 364.56 189.13 364.22 186.93 356.27 191.45 356.61 193.65"/><polygon class="cls-3" points="352.57 195.95 355.06 194.53 354.71 192.34 352.23 193.75 352.57 195.95"/><polygon class="cls-55" points="348.69 198.16 351.18 196.74 350.84 194.54 348.35 195.96 348.69 198.16"/><polygon class="cls-55" points="370.31 191.34 375.39 188.44 375.05 186.25 369.96 189.14 370.31 191.34"/><polygon class="cls-3" points="342.73 163.23 335.68 167.24 335.33 165.04 342.38 161.03 342.73 163.23"/><polygon class="cls-55" points="342.01 169.11 336.47 172.26 336.12 170.06 341.67 166.91 342.01 169.11"/><polygon class="cls-55" points="341.27 175.01 337.26 177.29 336.91 175.09 340.92 172.81 341.27 175.01"/><polygon class="cls-55" points="343.88 179 338.05 182.31 337.7 180.12 343.53 176.8 343.88 179"/><polygon class="cls-55" points="342.85 185.06 338.84 187.34 338.49 185.14 342.5 182.86 342.85 185.06"/><polygon class="cls-55" points="344.71 189.47 339.63 192.36 339.28 190.16 344.37 187.27 344.71 189.47"/><polygon class="cls-55" points="343.19 195.81 340.42 197.39 340.07 195.19 342.84 193.61 343.19 195.81"/><polygon class="cls-55" points="346.57 199.36 341.21 202.41 340.86 200.21 346.23 197.16 346.57 199.36"/><polygon class="cls-55" points="347.08 204.55 342 207.44 341.65 205.24 346.73 202.35 347.08 204.55"/><polygon class="cls-55" points="366.59 193.45 368.76 192.22 368.41 190.02 366.25 191.25 366.59 193.45"/><polygon class="cls-55" points="360.17 197.1 365.04 194.33 364.69 192.13 359.83 194.9 360.17 197.1"/><polygon class="cls-55" points="319.46 176.37 329.63 170.59 329.29 168.39 319.12 174.17 319.46 176.37"/><polygon class="cls-55" points="314.25 179.33 317.91 177.25 317.57 175.05 313.9 177.13 314.25 179.33"/><polygon class="cls-3" points="310.21 181.63 312.7 180.22 312.35 178.02 309.86 179.43 310.21 181.63"/><polygon class="cls-55" points="324.88 178.76 330.42 175.61 330.08 173.41 324.54 176.56 324.88 178.76"/><polygon class="cls-55" points="316.54 183.51 323.33 179.64 322.98 177.44 316.19 181.31 316.54 183.51"/><polygon class="cls-3" points="312.5 185.8 314.99 184.39 314.64 182.19 312.15 183.6 312.5 185.8"/><polygon class="cls-55" points="308.65 187.99 311.14 186.58 310.79 184.38 308.31 185.79 308.65 187.99"/><polygon class="cls-55" points="327.2 182.91 331.21 180.63 330.87 178.44 326.86 180.72 327.2 182.91"/><polygon class="cls-55" points="324.28 184.58 325.65 183.8 325.3 181.6 323.93 182.38 324.28 184.58"/><polygon class="cls-55" points="320.24 186.88 322.73 185.46 322.38 183.26 319.89 184.68 320.24 186.88"/><polygon class="cls-55" points="317.2 194.07 332 185.66 331.66 183.46 316.86 191.88 317.2 194.07"/><polygon class="cls-55" points="311.99 197.04 315.65 194.96 315.31 192.76 311.64 194.84 311.99 197.04"/><polygon class="cls-55" points="328.78 192.96 332.79 190.68 332.44 188.48 328.44 190.76 328.78 192.96"/><polygon class="cls-55" points="319.37 198.31 327.23 193.85 326.88 191.65 319.03 196.12 319.37 198.31"/><polygon class="cls-55" points="315.33 200.61 317.82 199.2 317.48 197 314.99 198.41 315.33 200.61"/><polygon class="cls-3" points="325.38 200.37 333.58 195.71 333.24 193.51 325.03 198.17 325.38 200.37"/><polygon class="cls-55" points="317.89 204.63 323.82 201.26 323.48 199.06 317.55 202.43 317.89 204.63"/><polygon class="cls-55" points="312.33 207.79 316.34 205.51 315.99 203.31 311.99 205.59 312.33 207.79"/><polygon class="cls-55" points="331.6 202.31 334.37 200.73 334.02 198.53 331.25 200.11 331.6 202.31"/><polygon class="cls-55" points="326.38 205.28 330.05 203.19 329.7 200.99 326.04 203.07 326.38 205.28"/><polygon class="cls-3" points="318.93 209.51 324.83 206.16 324.49 203.96 318.59 207.31 318.93 209.51"/><polygon class="cls-55" points="326.67 210.58 335.16 205.76 334.81 203.56 326.33 208.38 326.67 210.58"/><polygon class="cls-55" points="317.17 215.99 325.12 211.47 324.77 209.27 316.82 213.79 317.17 215.99"/><polygon class="cls-55" points="313.13 218.29 315.62 216.87 315.27 214.67 312.78 216.09 313.13 218.29"/><polygon class="cls-55" points="309.25 220.49 311.74 219.08 311.39 216.88 308.9 218.29 309.25 220.49"/><polygon class="cls-55" points="330.86 213.67 335.95 210.78 335.6 208.58 330.52 211.47 330.86 213.67"/><polygon class="cls-3" points="303.29 185.57 296.24 189.58 295.89 187.38 302.94 183.37 303.29 185.57"/><polygon class="cls-55" points="302.56 191.45 297.02 194.6 296.68 192.4 302.22 189.25 302.56 191.45"/><polygon class="cls-55" points="301.82 197.35 297.81 199.63 297.47 197.43 301.48 195.15 301.82 197.35"/><polygon class="cls-55" points="304.43 201.34 298.6 204.65 298.26 202.45 304.09 199.14 304.43 201.34"/><polygon class="cls-55" points="303.4 207.4 299.39 209.68 299.05 207.48 303.06 205.2 303.4 207.4"/><polygon class="cls-55" points="305.27 211.81 300.18 214.7 299.84 212.5 304.92 209.61 305.27 211.81"/><polygon class="cls-55" points="303.74 218.15 300.97 219.73 300.63 217.53 303.4 215.95 303.74 218.15"/><polygon class="cls-55" points="307.13 221.7 301.76 224.75 301.42 222.55 306.78 219.5 307.13 221.7"/><polygon class="cls-55" points="307.63 226.88 302.55 229.78 302.2 227.58 307.29 224.69 307.63 226.88"/><polygon class="cls-3" points="327.15 215.79 329.31 214.56 328.96 212.36 326.8 213.59 327.15 215.79"/><polygon class="cls-55" points="320.73 219.44 325.6 216.67 325.25 214.47 320.38 217.24 320.73 219.44"/><polygon class="cls-55" points="366.02 199.28 376.19 193.5 375.84 191.3 365.67 197.08 366.02 199.28"/><polygon class="cls-55" points="360.8 202.25 364.46 200.16 364.12 197.97 360.46 200.05 360.8 202.25"/><polygon class="cls-55" points="356.76 204.54 359.25 203.13 358.9 200.93 356.42 202.34 356.76 204.54"/><polygon class="cls-55" points="371.44 201.67 376.98 198.52 376.63 196.32 371.09 199.47 371.44 201.67"/><polygon class="cls-55" points="363.09 206.42 369.88 202.56 369.54 200.36 362.75 204.22 363.09 206.42"/><polygon class="cls-55" points="359.05 208.72 361.54 207.3 361.19 205.1 358.71 206.52 359.05 208.72"/><polygon class="cls-55" points="355.21 210.9 357.69 209.49 357.35 207.29 354.86 208.71 355.21 210.9"/><polygon class="cls-55" points="373.76 205.83 377.77 203.55 377.42 201.35 373.41 203.63 373.76 205.83"/><polygon class="cls-55" points="370.83 207.49 372.2 206.71 371.86 204.51 370.49 205.29 370.83 207.49"/><polygon class="cls-55" points="366.79 209.79 369.28 208.37 368.94 206.17 366.45 207.59 366.79 209.79"/><polygon class="cls-55" points="363.76 216.99 378.56 208.57 378.21 206.37 363.41 214.79 363.76 216.99"/><polygon class="cls-55" points="358.54 219.95 362.2 217.87 361.86 215.67 358.2 217.75 358.54 219.95"/><polygon class="cls-55" points="375.34 215.88 379.35 213.6 379 211.4 374.99 213.68 375.34 215.88"/><polygon class="cls-55" points="365.93 221.23 373.78 216.76 373.44 214.56 365.58 219.03 365.93 221.23"/><polygon class="cls-55" points="361.89 223.53 364.38 222.11 364.03 219.91 361.54 221.33 361.89 223.53"/><polygon class="cls-55" points="371.93 223.29 380.13 218.62 379.79 216.42 371.59 221.09 371.93 223.29"/><polygon class="cls-55" points="364.45 227.54 370.38 224.17 370.03 221.97 364.1 225.34 364.45 227.54"/><polygon class="cls-55" points="358.88 230.71 362.89 228.43 362.55 226.23 358.54 228.51 358.88 230.71"/><polygon class="cls-55" points="378.15 225.22 380.92 223.65 380.58 221.45 377.81 223.02 378.15 225.22"/><polygon class="cls-55" points="372.94 228.19 376.6 226.11 376.25 223.91 372.59 225.99 372.94 228.19"/><polygon class="cls-55" points="365.49 232.43 371.38 229.07 371.04 226.87 365.14 230.23 365.49 232.43"/><polygon class="cls-55" points="373.23 233.5 381.71 228.67 381.37 226.47 372.88 231.3 373.23 233.5"/><polygon class="cls-55" points="363.72 238.9 371.67 234.38 371.33 232.18 363.38 236.7 363.72 238.9"/><polygon class="cls-55" points="359.68 241.2 362.17 239.79 361.82 237.59 359.34 239 359.68 241.2"/><polygon class="cls-55" points="355.8 243.41 358.29 241.99 357.94 239.79 355.46 241.21 355.8 243.41"/><polygon class="cls-55" points="377.42 236.59 382.5 233.7 382.16 231.5 377.07 234.39 377.42 236.59"/><polygon class="cls-55" points="349.84 208.48 342.79 212.49 342.44 210.29 349.49 206.28 349.84 208.48"/><polygon class="cls-55" points="349.12 214.37 343.58 217.52 343.23 215.32 348.77 212.17 349.12 214.37"/><polygon class="cls-55" points="348.38 220.26 344.37 222.54 344.02 220.34 348.03 218.06 348.38 220.26"/><polygon class="cls-55" points="350.99 224.25 345.16 227.57 344.81 225.37 350.64 222.05 350.99 224.25"/><polygon class="cls-55" points="349.95 230.31 345.95 232.59 345.6 230.39 349.61 228.11 349.95 230.31"/><polygon class="cls-55" points="351.82 234.72 346.74 237.62 346.39 235.42 351.47 232.53 351.82 234.72"/><polygon class="cls-55" points="350.3 241.06 347.52 242.64 347.18 240.44 349.95 238.87 350.3 241.06"/><polygon class="cls-55" points="353.68 244.61 348.31 247.66 347.97 245.47 353.34 242.41 353.68 244.61"/><polygon class="cls-55" points="354.19 249.8 349.1 252.69 348.76 250.49 353.84 247.6 354.19 249.8"/><polygon class="cls-55" points="373.7 238.7 375.86 237.47 375.52 235.27 373.36 236.5 373.7 238.7"/><polygon class="cls-55" points="367.28 242.35 372.15 239.58 371.8 237.38 366.94 240.15 367.28 242.35"/><polygon class="cls-55" points="365.55 259.25 373.76 254.58 373.42 252.38 365.21 257.06 365.55 259.25"/><polygon class="cls-55" points="359.93 262.45 363.16 260.61 362.82 258.41 359.58 260.25 359.93 262.45"/><polygon class="cls-55" points="326.57 221.62 336.74 215.84 336.4 213.64 326.23 219.42 326.57 221.62"/><polygon class="cls-55" points="321.36 224.59 325.02 222.5 324.67 220.3 321.01 222.39 321.36 224.59"/><polygon class="cls-55" points="317.32 226.88 319.81 225.47 319.46 223.27 316.97 224.68 317.32 226.88"/><polygon class="cls-55" points="331.99 224.01 337.53 220.86 337.19 218.66 331.64 221.81 331.99 224.01"/><polygon class="cls-55" points="323.65 228.76 330.44 224.9 330.09 222.7 323.3 226.56 323.65 228.76"/><polygon class="cls-55" points="319.61 231.06 322.09 229.64 321.75 227.44 319.26 228.86 319.61 231.06"/><polygon class="cls-55" points="315.76 233.24 318.25 231.83 317.9 229.63 315.42 231.04 315.76 233.24"/><polygon class="cls-55" points="334.31 228.17 338.32 225.89 337.98 223.69 333.97 225.97 334.31 228.17"/><polygon class="cls-55" points="331.39 229.83 332.76 229.05 332.41 226.85 331.04 227.63 331.39 229.83"/><polygon class="cls-55" points="327.35 232.13 329.83 230.71 329.49 228.51 327 229.93 327.35 232.13"/><polygon class="cls-55" points="324.31 239.33 339.11 230.91 338.76 228.71 323.97 237.13 324.31 239.33"/><polygon class="cls-55" points="319.1 242.29 322.76 240.21 322.42 238.01 318.75 240.09 319.1 242.29"/><polygon class="cls-55" points="335.89 238.22 339.9 235.94 339.55 233.74 335.55 236.02 335.89 238.22"/><polygon class="cls-55" points="326.48 243.57 334.34 239.1 333.99 236.9 326.14 241.37 326.48 243.57"/><polygon class="cls-55" points="322.44 245.86 324.93 244.45 324.58 242.25 322.1 243.66 322.44 245.86"/><polygon class="cls-55" points="332.49 245.63 340.69 240.96 340.34 238.76 332.14 243.43 332.49 245.63"/><polygon class="cls-55" points="325 249.88 330.93 246.51 330.59 244.31 324.66 247.68 325 249.88"/><polygon class="cls-55" points="319.44 253.04 323.45 250.77 323.1 248.57 319.09 250.85 319.44 253.04"/><polygon class="cls-55" points="338.71 247.56 341.48 245.99 341.13 243.79 338.36 245.36 338.71 247.56"/><polygon class="cls-55" points="333.49 250.53 337.15 248.44 336.81 246.25 333.15 248.33 333.49 250.53"/><polygon class="cls-55" points="326.04 254.76 331.94 251.41 331.59 249.21 325.69 252.56 326.04 254.76"/><polygon class="cls-55" points="333.78 255.84 342.27 251.01 341.92 248.81 333.44 253.64 333.78 255.84"/><polygon class="cls-55" points="324.28 261.24 332.23 256.72 331.88 254.52 323.93 259.04 324.28 261.24"/><polygon class="cls-55" points="320.24 263.54 322.72 262.13 322.38 259.93 319.89 261.34 320.24 263.54"/><polygon class="cls-55" points="316.36 265.75 318.85 264.33 318.5 262.13 316.01 263.55 316.36 265.75"/><polygon class="cls-55" points="337.97 258.93 343.06 256.04 342.71 253.84 337.63 256.73 337.97 258.93"/><polygon class="cls-55" points="310.39 230.82 303.34 234.83 303 232.63 310.05 228.62 310.39 230.82"/><polygon class="cls-55" points="309.67 236.71 304.13 239.85 303.79 237.66 309.33 234.5 309.67 236.71"/><polygon class="cls-55" points="308.93 242.6 304.92 244.88 304.58 242.68 308.58 240.4 308.93 242.6"/><polygon class="cls-55" points="311.54 246.59 305.71 249.91 305.37 247.71 311.2 244.39 311.54 246.59"/><polygon class="cls-55" points="310.51 252.65 306.5 254.93 306.15 252.73 310.16 250.45 310.51 252.65"/><polygon class="cls-55" points="312.38 257.06 307.29 259.95 306.94 257.75 312.03 254.86 312.38 257.06"/><polygon class="cls-55" points="310.85 263.4 308.08 264.98 307.73 262.78 310.5 261.2 310.85 263.4"/><polygon class="cls-55" points="314.24 266.95 308.87 270 308.52 267.8 313.89 264.75 314.24 266.95"/><polygon class="cls-55" points="314.74 272.14 309.66 275.03 309.31 272.83 314.4 269.94 314.74 272.14"/><polygon class="cls-55" points="334.26 261.04 336.42 259.81 336.07 257.61 333.91 258.84 334.26 261.04"/><polygon class="cls-55" points="327.84 264.69 332.7 261.92 332.36 259.72 327.49 262.49 327.84 264.69"/><polygon class="cls-55" points="326.11 281.59 334.32 276.92 333.97 274.72 325.76 279.39 326.11 281.59"/><polygon class="cls-55" points="320.48 284.79 323.72 282.95 323.37 280.75 320.14 282.59 320.48 284.79"/><polygon class="cls-55" points="453.71 99.64 463.88 93.86 463.53 91.66 453.36 97.44 453.71 99.64"/><polygon class="cls-55" points="448.5 102.61 452.16 100.52 451.81 98.33 448.15 100.41 448.5 102.61"/><polygon class="cls-55" points="444.45 104.91 446.94 103.49 446.6 101.29 444.11 102.7 444.45 104.91"/><polygon class="cls-55" points="459.13 102.03 464.67 98.88 464.32 96.68 458.78 99.83 459.13 102.03"/><polygon class="cls-55" points="450.78 106.78 457.57 102.92 457.23 100.72 450.44 104.58 450.78 106.78"/><polygon class="cls-55" points="446.74 109.08 449.23 107.66 448.88 105.46 446.4 106.88 446.74 109.08"/><polygon class="cls-55" points="442.9 111.26 445.38 109.85 445.04 107.65 442.55 109.06 442.9 111.26"/><polygon class="cls-3" points="461.45 106.19 465.46 103.91 465.11 101.71 461.1 103.99 461.45 106.19"/><polygon class="cls-3" points="458.52 107.85 459.89 107.07 459.55 104.87 458.18 105.65 458.52 107.85"/><polygon class="cls-55" points="454.48 110.15 456.97 108.73 456.63 106.53 454.14 107.95 454.48 110.15"/><polygon class="cls-55" points="451.45 117.35 466.25 108.93 465.9 106.73 451.1 115.15 451.45 117.35"/><polygon class="cls-55" points="446.24 120.31 449.9 118.23 449.55 116.03 445.89 118.11 446.24 120.31"/><polygon class="cls-55" points="463.03 116.24 467.04 113.96 466.69 111.76 462.68 114.04 463.03 116.24"/><polygon class="cls-55" points="453.62 121.59 461.47 117.12 461.13 114.92 453.27 119.39 453.62 121.59"/><polygon class="cls-55" points="449.58 123.89 452.06 122.47 451.72 120.27 449.23 121.69 449.58 123.89"/><polygon class="cls-55" points="459.62 123.65 467.82 118.98 467.48 116.78 459.28 121.45 459.62 123.65"/><polygon class="cls-3" points="452.14 127.9 458.07 124.53 457.72 122.33 451.79 125.7 452.14 127.9"/><polygon class="cls-55" points="446.57 131.07 450.58 128.79 450.24 126.59 446.23 128.87 446.57 131.07"/><polygon class="cls-55" points="465.84 125.58 468.61 124.01 468.27 121.81 465.5 123.38 465.84 125.58"/><polygon class="cls-55" points="460.63 128.55 464.29 126.47 463.94 124.27 460.28 126.35 460.63 128.55"/><polygon class="cls-55" points="453.18 132.79 459.08 129.43 458.73 127.23 452.83 130.59 453.18 132.79"/><polygon class="cls-55" points="460.92 133.86 469.4 129.03 469.06 126.83 460.57 131.66 460.92 133.86"/><polygon class="cls-55" points="451.41 139.26 459.36 134.74 459.02 132.54 451.07 137.06 451.41 139.26"/><polygon class="cls-3" points="447.37 141.56 449.86 140.15 449.51 137.95 447.03 139.36 447.37 141.56"/><polygon class="cls-55" points="443.49 143.77 445.98 142.35 445.64 140.15 443.15 141.57 443.49 143.77"/><polygon class="cls-55" points="465.11 136.95 470.19 134.06 469.85 131.86 464.76 134.75 465.11 136.95"/><polygon class="cls-3" points="437.53 108.84 430.48 112.85 430.13 110.65 437.19 106.64 437.53 108.84"/><polygon class="cls-55" points="436.81 114.72 431.27 117.88 430.92 115.68 436.46 112.53 436.81 114.72"/><polygon class="cls-55" points="436.07 120.62 432.06 122.9 431.71 120.7 435.72 118.42 436.07 120.62"/><polygon class="cls-55" points="438.68 124.61 432.85 127.93 432.5 125.73 438.33 122.41 438.68 124.61"/><polygon class="cls-55" points="437.65 130.67 433.64 132.95 433.29 130.75 437.3 128.47 437.65 130.67"/><polygon class="cls-55" points="439.51 135.08 434.43 137.97 434.08 135.78 439.17 132.88 439.51 135.08"/><polygon class="cls-55" points="437.99 141.43 435.22 143 434.87 140.8 437.64 139.22 437.99 141.43"/><polygon class="cls-55" points="441.37 144.97 436 148.03 435.66 145.82 441.03 142.77 441.37 144.97"/><polygon class="cls-55" points="441.88 150.16 436.79 153.05 436.45 150.85 441.53 147.96 441.88 150.16"/><polygon class="cls-55" points="461.39 139.06 463.56 137.83 463.21 135.63 461.05 136.86 461.39 139.06"/><polygon class="cls-55" points="454.97 142.71 459.84 139.94 459.49 137.74 454.63 140.51 454.97 142.71"/><polygon class="cls-55" points="414.26 121.98 424.43 116.2 424.09 114 413.92 119.78 414.26 121.98"/><polygon class="cls-55" points="409.05 124.94 412.71 122.86 412.37 120.66 408.7 122.75 409.05 124.94"/><polygon class="cls-3" points="405.01 127.24 407.5 125.83 407.15 123.63 404.66 125.04 405.01 127.24"/><polygon class="cls-55" points="419.68 124.37 425.22 121.22 424.88 119.02 419.34 122.17 419.68 124.37"/><polygon class="cls-55" points="411.34 129.12 418.13 125.26 417.78 123.06 410.99 126.92 411.34 129.12"/><polygon class="cls-3" points="407.3 131.42 409.78 130 409.44 127.8 406.95 129.22 407.3 131.42"/><polygon class="cls-55" points="403.45 133.6 405.94 132.19 405.59 129.99 403.11 131.4 403.45 133.6"/><polygon class="cls-55" points="422 128.53 426.01 126.25 425.67 124.05 421.66 126.33 422 128.53"/><polygon class="cls-55" points="419.08 130.19 420.45 129.41 420.1 127.21 418.73 127.99 419.08 130.19"/><polygon class="cls-55" points="415.04 132.49 417.52 131.07 417.18 128.87 414.69 130.29 415.04 132.49"/><polygon class="cls-55" points="412 139.69 426.8 131.27 426.45 129.07 411.66 137.49 412 139.69"/><polygon class="cls-55" points="406.79 142.65 410.45 140.57 410.11 138.37 406.44 140.45 406.79 142.65"/><polygon class="cls-55" points="423.58 138.57 427.59 136.3 427.25 134.1 423.24 136.38 423.58 138.57"/><polygon class="cls-55" points="414.17 143.93 422.03 139.46 421.68 137.26 413.83 141.73 414.17 143.93"/><polygon class="cls-55" points="410.13 146.22 412.62 144.81 412.27 142.61 409.79 144.02 410.13 146.22"/><polygon class="cls-3" points="420.18 145.99 428.38 141.32 428.03 139.12 419.83 143.78 420.18 145.99"/><polygon class="cls-55" points="412.69 150.24 418.62 146.87 418.28 144.67 412.35 148.04 412.69 150.24"/><polygon class="cls-55" points="407.13 153.41 411.14 151.13 410.79 148.93 406.78 151.21 407.13 153.41"/><polygon class="cls-55" points="426.4 147.92 429.17 146.34 428.82 144.15 426.05 145.72 426.4 147.92"/><polygon class="cls-55" points="421.18 150.89 424.85 148.8 424.5 146.6 420.84 148.69 421.18 150.89"/><polygon class="cls-3" points="413.73 155.12 419.63 151.77 419.29 149.57 413.39 152.93 413.73 155.12"/><polygon class="cls-55" points="421.47 156.2 429.96 151.37 429.61 149.17 421.13 154 421.47 156.2"/><polygon class="cls-55" points="411.97 161.6 419.92 157.08 419.57 154.88 411.62 159.4 411.97 161.6"/><polygon class="cls-55" points="407.93 163.9 410.41 162.49 410.07 160.28 407.58 161.7 407.93 163.9"/><polygon class="cls-55" points="404.05 166.1 406.54 164.69 406.19 162.49 403.7 163.91 404.05 166.1"/><polygon class="cls-55" points="425.66 159.29 430.75 156.4 430.4 154.19 425.32 157.09 425.66 159.29"/><polygon class="cls-3" points="398.08 131.18 391.03 135.19 390.69 132.99 397.74 128.98 398.08 131.18"/><polygon class="cls-55" points="397.36 137.06 391.82 140.22 391.48 138.02 397.02 134.87 397.36 137.06"/><polygon class="cls-55" points="396.62 142.96 392.61 145.24 392.27 143.04 396.28 140.76 396.62 142.96"/><polygon class="cls-55" points="399.23 146.95 393.4 150.26 393.06 148.06 398.89 144.75 399.23 146.95"/><polygon class="cls-55" points="398.2 153.01 394.19 155.29 393.85 153.09 397.86 150.81 398.2 153.01"/><polygon class="cls-55" points="400.06 157.42 394.98 160.31 394.63 158.11 399.72 155.22 400.06 157.42"/><polygon class="cls-55" points="398.54 163.76 395.77 165.34 395.43 163.14 398.19 161.56 398.54 163.76"/><polygon class="cls-55" points="401.93 167.31 396.56 170.36 396.21 168.16 401.58 165.11 401.93 167.31"/><polygon class="cls-55" points="402.43 172.5 397.35 175.39 397 173.19 402.09 170.3 402.43 172.5"/><polygon class="cls-3" points="421.95 161.4 424.11 160.17 423.76 157.97 421.6 159.2 421.95 161.4"/><polygon class="cls-55" points="415.53 165.05 420.39 162.28 420.05 160.08 415.18 162.85 415.53 165.05"/><polygon class="cls-55" points="460.82 144.89 470.99 139.11 470.64 136.91 460.47 142.69 460.82 144.89"/><polygon class="cls-55" points="455.6 147.86 459.26 145.78 458.92 143.58 455.26 145.66 455.6 147.86"/><polygon class="cls-55" points="451.56 150.16 454.05 148.74 453.7 146.54 451.22 147.96 451.56 150.16"/><polygon class="cls-55" points="466.24 147.29 471.78 144.13 471.43 141.94 465.89 145.09 466.24 147.29"/><polygon class="cls-55" points="457.89 152.03 464.68 148.17 464.34 145.97 457.55 149.83 457.89 152.03"/><polygon class="cls-55" points="453.85 154.33 456.34 152.91 455.99 150.71 453.5 152.13 453.85 154.33"/><polygon class="cls-55" points="450 156.52 452.49 155.1 452.15 152.9 449.66 154.32 450 156.52"/><polygon class="cls-55" points="468.56 151.44 472.57 149.16 472.22 146.96 468.21 149.24 468.56 151.44"/><polygon class="cls-55" points="465.63 153.1 467 152.32 466.66 150.12 465.29 150.9 465.63 153.1"/><polygon class="cls-55" points="461.59 155.4 464.08 153.99 463.73 151.79 461.25 153.2 461.59 155.4"/><polygon class="cls-55" points="458.56 162.6 473.36 154.18 473.01 151.98 458.21 160.4 458.56 162.6"/><polygon class="cls-55" points="453.34 165.56 457 163.48 456.66 161.28 453 163.37 453.34 165.56"/><polygon class="cls-55" points="470.14 161.49 474.14 159.21 473.8 157.01 469.79 159.29 470.14 161.49"/><polygon class="cls-55" points="460.73 166.84 468.58 162.37 468.24 160.17 460.38 164.64 460.73 166.84"/><polygon class="cls-55" points="456.69 169.14 459.17 167.72 458.83 165.52 456.34 166.94 456.69 169.14"/><polygon class="cls-55" points="466.73 168.9 474.93 164.23 474.59 162.03 466.39 166.7 466.73 168.9"/><polygon class="cls-55" points="459.25 173.16 465.18 169.78 464.83 167.58 458.9 170.96 459.25 173.16"/><polygon class="cls-55" points="453.68 176.32 457.69 174.04 457.35 171.84 453.34 174.12 453.68 176.32"/><polygon class="cls-55" points="472.95 170.83 475.72 169.26 475.38 167.06 472.61 168.63 472.95 170.83"/><polygon class="cls-55" points="467.74 173.8 471.4 171.72 471.05 169.52 467.39 171.6 467.74 173.8"/><polygon class="cls-55" points="460.29 178.04 466.19 174.68 465.84 172.48 459.94 175.84 460.29 178.04"/><polygon class="cls-55" points="468.03 179.11 476.51 174.28 476.17 172.08 467.68 176.91 468.03 179.11"/><polygon class="cls-55" points="458.52 184.51 466.47 179.99 466.13 177.79 458.18 182.31 458.52 184.51"/><polygon class="cls-55" points="454.48 186.81 456.97 185.4 456.62 183.2 454.13 184.61 454.48 186.81"/><polygon class="cls-55" points="450.6 189.02 453.09 187.6 452.74 185.4 450.26 186.82 450.6 189.02"/><polygon class="cls-55" points="472.22 182.2 477.3 179.31 476.96 177.11 471.87 180 472.22 182.2"/><polygon class="cls-55" points="444.64 154.09 437.59 158.1 437.24 155.9 444.29 151.89 444.64 154.09"/><polygon class="cls-55" points="443.92 159.98 438.38 163.13 438.03 160.93 443.57 157.78 443.92 159.98"/><polygon class="cls-55" points="443.18 165.87 439.17 168.15 438.82 165.95 442.83 163.67 443.18 165.87"/><polygon class="cls-55" points="445.79 169.86 439.96 173.18 439.61 170.98 445.44 167.66 445.79 169.86"/><polygon class="cls-55" points="444.75 175.92 440.75 178.2 440.4 176 444.41 173.72 444.75 175.92"/><polygon class="cls-55" points="446.62 180.34 441.54 183.23 441.19 181.03 446.27 178.14 446.62 180.34"/><polygon class="cls-55" points="445.1 186.68 442.32 188.25 441.98 186.05 444.75 184.48 445.1 186.68"/><polygon class="cls-55" points="448.48 190.22 443.11 193.28 442.77 191.08 448.14 188.02 448.48 190.22"/><polygon class="cls-55" points="448.99 195.41 443.9 198.3 443.56 196.1 448.64 193.21 448.99 195.41"/><polygon class="cls-55" points="468.5 184.31 470.66 183.08 470.32 180.88 468.16 182.11 468.5 184.31"/><polygon class="cls-55" points="462.08 187.96 466.95 185.2 466.6 183 461.74 185.76 462.08 187.96"/><polygon class="cls-55" points="460.35 204.87 468.56 200.19 468.22 198 460 202.67 460.35 204.87"/><polygon class="cls-55" points="454.73 208.06 457.96 206.22 457.62 204.03 454.38 205.87 454.73 208.06"/><polygon class="cls-55" points="421.37 167.23 431.54 161.45 431.2 159.25 421.03 165.03 421.37 167.23"/><polygon class="cls-55" points="416.16 170.2 419.82 168.12 419.47 165.91 415.81 168 416.16 170.2"/><polygon class="cls-55" points="412.12 172.5 414.61 171.08 414.26 168.88 411.77 170.3 412.12 172.5"/><polygon class="cls-55" points="426.79 169.62 432.33 166.47 431.99 164.27 426.44 167.43 426.79 169.62"/><polygon class="cls-55" points="418.45 174.37 425.24 170.51 424.89 168.31 418.1 172.17 418.45 174.37"/><polygon class="cls-55" points="414.4 176.67 416.89 175.25 416.55 173.05 414.06 174.47 414.4 176.67"/><polygon class="cls-55" points="410.56 178.85 413.05 177.44 412.7 175.24 410.21 176.66 410.56 178.85"/><polygon class="cls-55" points="429.11 173.78 433.12 171.5 432.77 169.3 428.77 171.58 429.11 173.78"/><polygon class="cls-55" points="426.19 175.44 427.56 174.66 427.21 172.46 425.84 173.24 426.19 175.44"/><polygon class="cls-55" points="422.15 177.74 424.63 176.32 424.29 174.12 421.8 175.54 422.15 177.74"/><polygon class="cls-55" points="419.11 184.94 433.91 176.52 433.56 174.32 418.77 182.74 419.11 184.94"/><polygon class="cls-55" points="413.9 187.9 417.56 185.82 417.21 183.62 413.55 185.7 413.9 187.9"/><polygon class="cls-55" points="430.69 183.83 434.7 181.55 434.35 179.35 430.35 181.63 430.69 183.83"/><polygon class="cls-55" points="421.28 189.18 429.14 184.71 428.79 182.51 420.94 186.98 421.28 189.18"/><polygon class="cls-55" points="417.24 191.48 419.73 190.06 419.38 187.86 416.89 189.28 417.24 191.48"/><polygon class="cls-55" points="427.29 191.24 435.49 186.57 435.14 184.37 426.94 189.04 427.29 191.24"/><polygon class="cls-55" points="419.8 195.49 425.73 192.12 425.39 189.92 419.45 193.29 419.8 195.49"/><polygon class="cls-55" points="414.24 198.66 418.25 196.38 417.9 194.18 413.89 196.46 414.24 198.66"/><polygon class="cls-55" points="433.51 193.17 436.28 191.6 435.93 189.4 433.16 190.97 433.51 193.17"/><polygon class="cls-55" points="428.29 196.14 431.95 194.06 431.61 191.86 427.95 193.94 428.29 196.14"/><polygon class="cls-55" points="420.84 200.38 426.74 197.02 426.39 194.82 420.5 198.18 420.84 200.38"/><polygon class="cls-55" points="428.58 201.45 437.07 196.62 436.72 194.42 428.24 199.25 428.58 201.45"/><polygon class="cls-55" points="419.08 206.85 427.03 202.33 426.68 200.13 418.73 204.65 419.08 206.85"/><polygon class="cls-55" points="415.04 209.15 417.52 207.74 417.18 205.54 414.69 206.95 415.04 209.15"/><polygon class="cls-55" points="411.16 211.36 413.64 209.94 413.3 207.74 410.81 209.16 411.16 211.36"/><polygon class="cls-55" points="432.77 204.54 437.86 201.65 437.51 199.45 432.43 202.34 432.77 204.54"/><polygon class="cls-55" points="405.19 176.43 398.14 180.44 397.8 178.24 404.85 174.23 405.19 176.43"/><polygon class="cls-55" points="404.47 182.32 398.93 185.47 398.59 183.27 404.13 180.12 404.47 182.32"/><polygon class="cls-55" points="403.73 188.21 399.72 190.49 399.38 188.29 403.38 186.01 403.73 188.21"/><polygon class="cls-55" points="406.34 192.2 400.51 195.52 400.17 193.32 406 190 406.34 192.2"/><polygon class="cls-55" points="405.31 198.26 401.3 200.54 400.95 198.34 404.96 196.06 405.31 198.26"/><polygon class="cls-55" points="407.17 202.68 402.09 205.57 401.74 203.37 406.83 200.47 407.17 202.68"/><polygon class="cls-55" points="405.65 209.01 402.88 210.59 402.53 208.39 405.3 206.82 405.65 209.01"/><polygon class="cls-55" points="409.04 212.56 403.67 215.62 403.32 213.42 408.69 210.36 409.04 212.56"/><polygon class="cls-55" points="409.54 217.75 404.46 220.64 404.11 218.44 409.2 215.55 409.54 217.75"/><polygon class="cls-55" points="429.06 206.65 431.22 205.42 430.87 203.22 428.71 204.45 429.06 206.65"/><polygon class="cls-55" points="422.64 210.3 427.5 207.53 427.16 205.34 422.29 208.1 422.64 210.3"/><polygon class="cls-55" points="420.9 227.2 429.12 222.53 428.77 220.33 420.56 225 420.9 227.2"/><polygon class="cls-55" points="415.28 230.4 418.51 228.56 418.17 226.36 414.94 228.2 415.28 230.4"/><g class="cls-30"><path class="cls-9" d="M629.58,536.31l-91.89,53.05a.83.83,0,0,0,0,1.43l5.32,3.12a2.36,2.36,0,0,0,2.37,0l91.89-53a.83.83,0,0,0,0-1.43L632,536.32A2.36,2.36,0,0,0,629.58,536.31Z" transform="translate(-7.28 -5.91)"/></g><path class="cls-56" d="M629.86,359.27,621,354.18h0a1.34,1.34,0,0,0-1.31.12L543.6,398.26a4.94,4.94,0,0,0-2.07,4V575.36a1.8,1.8,0,0,0,.73,1.67h0l8.83,5.09.19-9.63L619.72,533a5,5,0,0,0,2.07-4V363.81c.18.56.31,1,.33,1S629.86,359.27,629.86,359.27Z" transform="translate(-7.28 -5.91)"/><path class="cls-57" d="M541.58,401.58l23,13.28,3.47-2-24.82-14.33A5.15,5.15,0,0,0,541.58,401.58Z" transform="translate(-7.28 -5.91)"/><path class="cls-58" d="M628.5,538l-76.12,44c-1.15.66-2.07,0-2.07-1.57V407.27a5,5,0,0,1,2.07-4l76.12-43.94c1.14-.66,2.07,0,2.07,1.56V534.07A5,5,0,0,1,628.5,538Z" transform="translate(-7.28 -5.91)"/><polygon class="cls-40" points="623.28 518.69 543.02 565.03 543.02 410.85 623.28 364.51 623.28 518.69"/><polygon class="cls-40" points="623.28 518.69 543.02 565.03 543.02 410.85 623.28 364.51 623.28 518.69"/><g class="cls-32"><polygon class="cls-33" points="623.28 513.29 543.02 559.63 543.02 415.79 623.28 369.45 623.28 513.29"/></g><path class="cls-59" d="M596.69,385.53l-14.52,8.41c-.42.25-.78.32-.94-.08a1.4,1.4,0,0,1-.08-.49h0a2.48,2.48,0,0,1,1-2l14.68-8.47s.08-.08.13-.06c.46.13.54.21.54.91l-.07.2A1.54,1.54,0,0,1,596.69,385.53Z" transform="translate(-7.28 -5.91)"/><path class="cls-60" d="M597,382.88a1.44,1.44,0,0,1,.08.49,2.48,2.48,0,0,1-1,2l-14.68,8.47a.75.75,0,0,1-.13.06.6.6,0,0,0,.94.29l14.68-8.47a2.48,2.48,0,0,0,1-2C597.87,383,597.48,382.68,597,382.88Z" transform="translate(-7.28 -5.91)"/><path class="cls-42" d="M545.62,421.65l-.16-.1a.71.71,0,0,0-.71-.06h0l-.62.36.3,0a1.64,1.64,0,0,0-.08.53v10a2.64,2.64,0,0,0,1.11,2.12l.16.1.23.1-.16.33.66-.38h0a1,1,0,0,0,.4-.89v-10A2.64,2.64,0,0,0,545.62,421.65Z" transform="translate(-7.28 -5.91)"/><path class="cls-60" d="M545,435l-.16-.1a2.64,2.64,0,0,1-1.12-2.12v-10c0-.82.5-1.19,1.12-.84l.16.1a2.63,2.63,0,0,1,1.11,2.12v10C546.1,435,545.61,435.35,545,435Z" transform="translate(-7.28 -5.91)"/><path class="cls-42" d="M545.62,437l-.16-.1a.74.74,0,0,0-.71-.06h0l-.62.36.3,0a1.69,1.69,0,0,0-.08.53v10a2.63,2.63,0,0,0,1.11,2.12l.16.1.23.1-.16.33.66-.38h0a1,1,0,0,0,.4-.89v-10A2.64,2.64,0,0,0,545.62,437Z" transform="translate(-7.28 -5.91)"/><path class="cls-60" d="M545,450.3l-.16-.1a2.64,2.64,0,0,1-1.12-2.12v-10c0-.81.5-1.19,1.12-.84l.16.1a2.63,2.63,0,0,1,1.11,2.12v10C546.1,450.28,545.61,450.65,545,450.3Z" transform="translate(-7.28 -5.91)"/><path class="cls-6" d="M695.33,532.92,638.9,501.78c-1.22-.68-1.1-1.9.29-2.74l16.21-9.78,60.87,33.59-16.22,9.79A5.25,5.25,0,0,1,695.33,532.92Z" transform="translate(-7.28 -5.91)"/><path class="cls-61" d="M773.83,487.54l-.22-11.12-18.11.36-40.64-22.43a4.27,4.27,0,0,0-3.84.23l-39.57,23.88-18,.36.22,11.14h0a1.12,1.12,0,0,0,.67.91l58.29,32.18a4.27,4.27,0,0,0,3.84-.24l56.46-34.06A1.64,1.64,0,0,0,773.83,487.54Z" transform="translate(-7.28 -5.91)"/><path class="cls-62" d="M712.4,511.92l-58.29-32.17c-1-.55-.89-1.54.24-2.22l56.45-34.07a4.29,4.29,0,0,1,3.85-.23l58.29,32.17c1,.55.89,1.55-.24,2.23l-56.45,34.06A4.29,4.29,0,0,1,712.4,511.92Z" transform="translate(-7.28 -5.91)"/><path class="cls-9" d="M712.53,508l-51.67-28.51c-.88-.49-.79-1.38.21-2l50-30.19a3.8,3.8,0,0,1,3.41-.21l51.67,28.52c.88.49.79,1.37-.21,2l-50,30.2A3.8,3.8,0,0,1,712.53,508Z" transform="translate(-7.28 -5.91)"/><path class="cls-10" d="M712.61,505.55l-47.47-26.2c-.81-.45-.73-1.26.19-1.81l46-27.75a3.52,3.52,0,0,1,3.13-.19l47.47,26.2c.81.45.73,1.26-.19,1.82l-46,27.74A3.49,3.49,0,0,1,712.61,505.55Z" transform="translate(-7.28 -5.91)"/><polygon class="cls-3" points="705.13 469.93 699.58 466.86 702.54 465.07 708.09 468.14 705.13 469.93"/><polygon class="cls-3" points="715.32 469.28 709.89 472.56 706.86 470.88 712.29 467.61 715.32 469.28"/><polygon class="cls-3" points="703.9 470.67 700.93 472.46 697.9 470.79 700.87 469 703.9 470.67"/><polygon class="cls-3" points="714.37 476.45 711.41 478.24 702.67 473.42 705.63 471.63 714.37 476.45"/></svg>