<svg xmlns="http://www.w3.org/2000/svg" width="267" height="76" viewBox="0 0 267 76">
    <g fill="none" fill-rule="evenodd">
        <path fill="#FFF" d="M97.171 18.38l-12.154-.004c-1.01 0-1.83.815-1.83 1.821s.82 1.822 1.829 1.823l10.325.004-.002 9.192-5.164 5.14-10.383-.003-5.134-5.116.007-22.32 5.203-5.275 10.41.003 5.493 5.682c.7.725 1.86.747 2.586.048.727-.697.75-1.85.048-2.575L92.373.56a1.82 1.82 0 0 0-1.316-.556L79.102 0c-.49 0-.961.195-1.305.543l-6.265 6.35c-.335.34-.525.8-.525 1.277L71 31.992c0 .483.193.946.536 1.287l6.203 6.183a1.82 1.82 0 0 0 1.293.534L90.931 40c.485 0 .95-.19 1.295-.533l6.234-6.206c.343-.344.536-.808.536-1.29L99 20.2a1.826 1.826 0 0 0-1.829-1.821m54.192-5.282l-4.956 4.949-15.765-.005.005-14.408 15.898.004 4.819 4.819-.001 4.641zM148.585.538A1.827 1.827 0 0 0 147.3.006L128.83 0c-1.005 0-1.82.814-1.82 1.817L127 38.176a1.816 1.816 0 0 0 1.818 1.817 1.816 1.816 0 0 0 1.817-1.816l.006-16.5 16.167.005 4.55 4.546-.003 11.955A1.816 1.816 0 0 0 153.173 40a1.817 1.817 0 0 0 1.818-1.816l.004-12.706c0-.48-.191-.943-.533-1.285l-4.53-4.53 4.534-4.525a1.82 1.82 0 0 0 .532-1.285L155 7.705c0-.482-.19-.944-.533-1.285L148.585.538zm50.442 35.825l.01-34.544c0-.736-.444-1.4-1.127-1.68a1.84 1.84 0 0 0-1.993.392L183.68 12.692a1.809 1.809 0 0 0-.001 2.57c.713.71 1.872.71 2.586.001l9.114-9.056-.009 30.155-10.54-.003c-1.01 0-1.829.813-1.83 1.816 0 1.004.82 1.818 1.829 1.818l24.343.007A1.821 1.821 0 0 0 211 38.185a1.82 1.82 0 0 0-1.827-1.819l-10.146-.003zm64.303-5.046l-5.076 5.04-15.59-.005.01-32.7 15.532.106 5.13 5.104-.006 22.455zm3.134-24.496c.343.343.536.805.536 1.287l-.007 23.964c0 .482-.194.946-.538 1.288l-6.148 6.105a1.832 1.832 0 0 1-1.295.535l-18.181-.005A1.827 1.827 0 0 1 239 38.172l.01-36.352A1.827 1.827 0 0 1 240.854 0l18.129.124a1.85 1.85 0 0 1 1.283.531l6.198 6.166zM19.004 35a1 1 0 1 1-.01 2 1 1 0 0 1 .01-2zM4 19.999a1 1 0 1 1 0 0zm30 0a1 1 0 1 1 2 .004 1 1 0 0 1-2-.005zM2.997 33A3.004 3.004 0 0 1 6 36.004 3.001 3.001 0 0 1 2.995 39a3.001 3.001 0 0 1 .002-6zm32.005 0a3 3 0 1 1-.005 6 3 3 0 0 1 .005-6zM20 4c0 .55-.448 1-.996 1C18.449 5 18 4.55 18 4a1 1 0 0 1 2 0zM2.997 1A3.006 3.006 0 0 1 6 4C6 5.66 4.653 7 2.995 7A2.998 2.998 0 0 1 0 3.999 3.002 3.002 0 0 1 2.997 1zM35 7c-1.654 0-3-1.344-3-3.002A3.005 3.005 0 0 1 35.002 1C36.654 1 38 2.349 38 4c0 1.658-1.348 3-3 3zM19.005 17A3.002 3.002 0 0 1 22 19.999 3.005 3.005 0 0 1 19.003 23 3.006 3.006 0 0 1 16 19.997 3.003 3.003 0 0 1 19.005 17z"/>
        <path fill="#5A25F0" d="M0 68h267v8H0z"/>
        <text fill="#FFF" font-family="Barlow-Regular, Barlow" font-size="22">
            <tspan x="49.13" y="70">Developers Portal</tspan>
        </text>
    </g>
</svg>
