<?xml version="1.0" encoding="UTF-8"?>
<svg width="267px" height="76px" viewBox="0 0 267 76" version="1.1" xmlns="http://www.w3.org/2000/svg" xmlns:xlink="http://www.w3.org/1999/xlink">
    <!-- Generator: Sketch 51.1 (57501) - http://www.bohemiancoding.com/sketch -->
    <title>gr1d_devportal</title>
    <desc>Created with Sketch.</desc>
    <defs></defs>
    <g id="Gr1d_devportal_gravitee" stroke="none" stroke-width="1" fill="none" fill-rule="evenodd">
        <g id="2_home" transform="translate(-587.000000, -168.000000)">
            <g id="gr1d_devportal" transform="translate(587.000000, 168.000000)">
                <path d="M97.1711226,18.3795396 L85.0169436,18.3764706 C84.0075182,18.3764706 83.1870393,19.1907928 83.1870393,20.1974425 C83.1870393,21.2030691 84.0064914,22.0194373 85.0159167,22.0204604 L95.3412183,22.0235294 L95.3391646,31.2163683 L90.1749734,36.3560102 L79.7921664,36.3529412 L74.6577548,31.2368286 L74.664943,8.91662404 L79.8681556,3.64194373 L90.2786885,3.64501279 L95.771482,9.32685422 C96.4718157,10.0521739 97.630139,10.0736573 98.3571717,9.37493606 C99.0842043,8.67826087 99.1067958,7.52531969 98.4054351,6.8 L92.3725016,0.560613811 C92.0295229,0.202557545 91.5530495,0.00409207161 91.0570653,0.00409207161 L79.1021014,0 C78.6112517,0 78.1409396,0.195396419 77.796934,0.543222506 L71.531925,6.89309463 C71.1971614,7.23273657 71.0071882,7.69207161 71.0071882,8.16982097 L71,31.9918159 C71,32.4746803 71.1930539,32.9381074 71.5360326,33.2787724 L77.7394286,39.4618926 C78.0813804,39.8056266 78.5465581,39.9959079 79.0322734,39.9959079 L90.9307588,40 C91.4164741,40 91.8816518,39.8097187 92.2256574,39.4670077 L98.4598599,33.2613811 C98.8028386,32.916624 98.9958925,32.4531969 98.9958925,31.9703325 L99,20.2015345 C99,19.1959079 98.1815748,18.3795396 97.1711226,18.3795396 M151.362563,13.0983649 L146.407154,18.0469762 L130.641522,18.0418756 L130.646626,3.63367414 L146.544974,3.63775462 L151.363583,8.45681039 L151.362563,13.0983649 Z M148.584716,0.537604231 C148.244759,0.199943889 147.782295,0.00612073128 147.300434,0.00612073128 L128.829439,0 C127.824882,0 127.01021,0.81405726 127.01021,1.81683707 L127.000001,38.1760211 C126.99898,39.179821 127.813652,39.9928582 128.818209,39.9928582 C129.821746,39.9928582 130.635397,39.1808412 130.635397,38.1770412 L130.640501,21.6765698 L146.808364,21.6816704 L151.358479,26.2283537 L151.355416,38.183162 C151.354395,39.1869619 152.169067,39.999999 153.172604,39.999999 C154.175119,40.0010192 154.990812,39.187982 154.990812,38.1841821 L154.994896,25.477544 C154.994896,24.9970666 154.803989,24.5349513 154.46199,24.1932105 L149.932293,19.6638694 L154.466074,15.1375886 C154.807051,14.7938075 154.997958,14.3347527 154.997958,13.8532551 L155,7.70498056 C155,7.22348303 154.809093,6.76136782 154.467094,6.41962699 L148.584716,0.537604231 Z M199.026991,36.3631994 L199.037259,1.81870831 C199.037259,1.0825678 198.592636,0.418918241 197.909784,0.138143427 C197.226932,-0.142631387 196.439342,0.0125605098 195.916678,0.531228166 L183.679771,12.6923511 C182.965087,13.3999036 182.965087,14.5536329 183.678744,15.2622064 C184.392401,15.9728219 185.550682,15.9728219 186.265366,15.2632274 L195.378612,6.20696341 L195.370397,36.3621784 L184.829837,36.3591155 C183.820449,36.3591155 183.001027,37.1718309 183,38.1754732 C183,39.1791156 183.819422,39.992852 184.82881,39.992852 L209.172216,39.999999 C210.181604,40.00102 210.999999,39.1872836 210.999999,38.1846622 C211.001026,37.1789779 210.182631,36.3662624 209.173242,36.3662624 L199.026991,36.3631994 Z M263.330162,31.3172934 L258.254307,36.3563893 L242.663667,36.3522999 L242.673952,3.65287203 L258.205966,3.75817267 L263.336333,8.86167569 L263.330162,31.3172934 Z M266.46413,6.82109235 C266.806634,7.16357503 267,7.62567105 267,8.10821381 L266.9928,32.0717777 C266.9928,32.5543204 266.799434,33.0184611 266.454873,33.3599214 L260.307277,39.4653141 C259.963744,39.8067744 259.498843,40.0010183 259.012343,39.999996 L240.830805,39.9948843 C239.819748,39.9948843 239,39.1780376 239,38.1720586 L239.010285,1.81982297 C239.011314,1.33421321 239.20468,0.871094845 239.552327,0.528612171 C239.897917,0.187151833 240.363847,-0.00402506307 240.854461,6.42822951e-05 L258.982515,0.12376698 C259.463872,0.126833989 259.923631,0.319033221 260.266135,0.655381877 L266.46413,6.82109235 Z M19.0047758,35 C19.5522383,35 20.0005964,35.4497465 19.9999994,36.0014912 C19.9999994,36.5520429 19.5522383,37 19.0041788,37 C18.4495521,36.9994035 18,36.5514465 18,36.0008947 C18,35.44915 18.4501491,35 19.0047758,35 Z M4,19.9985064 C4,20.5524351 3.55143541,21 2.99700957,21 C2.44856459,21 2,20.5518376 2,19.9979089 C2,19.4475654 2.44916268,18.999403 2.99760766,19.0000006 C3.55203349,19.0000006 4,19.448163 4,19.9985064 Z M34,19.9982079 C34,19.4480287 34.4480907,19 35.00179,19 C35.5531026,19.0005974 36,19.448626 36,19.9988053 C36,20.5519713 35.552506,21 35.0011933,21 C34.447494,21 34,20.551374 34,19.9982079 Z M2.99724541,33 C4.65472921,33 6,34.3456827 6,36.003674 C5.99908173,37.6589096 4.65289267,39.0009181 2.99540887,38.9999995 C1.34251643,38.9999995 -0.000917803105,37.6570725 4.70468271e-07,36.0018369 C4.70468271e-07,34.3438456 1.34435298,33 2.99724541,33 Z M35.0018346,33 C36.6541281,33 38.000917,34.3447641 37.9999995,36.0027554 C37.9999995,37.6589096 36.6522932,39.0009181 34.9999998,38.9999995 C33.344954,38.9999995 32,37.6570725 32,36.0009183 C32.0009174,34.342927 33.3467889,33 35.0018346,33 Z M20,4.00089472 C19.9994032,4.54965702 19.5517756,5 19.0038794,5 C18.4494181,5 18,4.54906054 18,4.00029824 C18,3.44795705 18.4500149,3 19.0044763,3 C19.5523724,3.00059648 20,3.44855353 20,4.00089472 Z M2.99724541,1 C4.65472921,1 6,2.34873746 6,4.00045883 C5.99908173,5.65860713 4.65289267,7.00091766 2.99540887,6.99999953 C1.34251643,6.99999953 -0.000917803105,5.65677087 4.70468271e-07,3.99862257 C4.70468271e-07,2.3469012 1.34435298,1 2.99724541,1 Z M35,7 C33.3458718,7 31.999083,5.65605875 32.0000005,3.99816401 C32.0000005,2.34669523 33.3467892,1 35.0018349,1 C36.6541282,1.00091799 38.000917,2.34853121 37.9999995,4 C37.9999995,5.65789474 36.6522933,7 35,7 Z M19.0045928,17 C20.6543172,17 22,18.3454767 22,19.9986221 C21.9990814,21.652686 20.6524801,23.0009179 19.0027557,22.9999995 C17.3447642,22.9999995 16,21.6508492 16,19.9967853 C16.0009186,18.3436399 17.3466013,17 19.0045928,17 Z" id="logotipo_196x40_white" fill="#FFFFFF"></path>
                <rect id="Rectangle-6" fill="#5A25F0" x="0" y="68" width="267" height="8"></rect>
                <path d="M51.418,71 C51.2273324,71 51.132,70.9046676 51.132,70.714 L51.132,55.886 C51.132,55.6953324 51.2273324,55.6 51.418,55.6 L56.544,55.6 C57.9960073,55.6 59.1509957,55.9813295 60.009,56.744 C60.8670043,57.5066705 61.296,58.5406601 61.296,59.846 L61.296,66.754 C61.296,68.0593399 60.8670043,69.0933295 60.009,69.856 C59.1509957,70.6186705 57.9960073,71 56.544,71 L51.418,71 Z M52.694,69.526 C52.694,69.5993337 52.7306663,69.636 52.804,69.636 L56.61,69.636 C57.5633381,69.636 58.3223305,69.3573361 58.887,68.8 C59.4516695,68.2426639 59.734,67.4946714 59.734,66.556 L59.734,60.066 C59.734,59.1126619 59.4553361,58.3573361 58.898,57.8 C58.3406639,57.2426639 57.5780048,56.964 56.61,56.964 L52.804,56.964 C52.7306663,56.964 52.694,57.0006663 52.694,57.074 L52.694,69.526 Z M68.754,69.834 C69.4140033,69.8193333 69.982331,69.6690014 70.459,69.383 C70.9356691,69.0969986 71.3059987,68.6973359 71.57,68.184 C71.5993335,68.1106663 71.6506663,68.0593335 71.724,68.03 C71.7973337,68.0006665 71.8706663,68.0079998 71.944,68.052 L72.582,68.404 C72.7580009,68.5066672 72.8020004,68.6313326 72.714,68.778 C72.3619982,69.511337 71.8340035,70.0943312 71.13,70.527 C70.4259965,70.9596688 69.5900048,71.176 68.622,71.176 C67.5953282,71.176 66.7300035,70.9340024 66.026,70.45 C65.3219965,69.9659976 64.8160015,69.2913377 64.508,68.426 C64.2293319,67.692663 64.09,66.6806731 64.09,65.39 C64.09,64.7593302 64.1009999,64.2570019 64.123,63.883 C64.1450001,63.5089981 64.1999996,63.1606683 64.288,62.838 C64.5373346,61.8846619 65.0396629,61.1220029 65.795,60.55 C66.5503371,59.9779971 67.463328,59.692 68.534,59.692 C69.8100064,59.692 70.8109964,60.0219967 71.537,60.682 C72.2630036,61.3420033 72.7286656,62.2733273 72.934,63.476 C73.0220004,63.9453357 73.066,64.6786617 73.066,65.676 C73.066,65.8666676 72.9706676,65.962 72.78,65.962 L65.74,65.962 C65.6666663,65.962 65.63,65.9986663 65.63,66.072 C65.63,66.805337 65.6739996,67.340665 65.762,67.678 C65.9233341,68.3380033 66.2643307,68.8623314 66.785,69.251 C67.3056693,69.6396686 67.961996,69.834 68.754,69.834 Z M68.534,61.056 C67.800663,61.056 67.1993357,61.2429981 66.73,61.617 C66.2606643,61.9910019 65.9526674,62.4933302 65.806,63.124 C65.7179996,63.4173348 65.6593335,63.9159965 65.63,64.62 C65.63,64.6933337 65.6666663,64.73 65.74,64.73 L71.394,64.73 C71.4673337,64.73 71.504,64.6933337 71.504,64.62 C71.4746665,63.9746634 71.430667,63.5053348 71.372,63.212 C71.2106659,62.5519967 70.8843358,62.0276686 70.393,61.639 C69.9016642,61.2503314 69.2820037,61.056 68.534,61.056 Z M79.05,71 C78.8739991,71 78.7640002,70.9193341 78.72,70.758 L75.156,60.198 C75.1413333,60.1686665 75.134,60.1320002 75.134,60.088 C75.134,60.029333 75.1596664,59.9780002 75.211,59.934 C75.2623336,59.8899998 75.3246663,59.868 75.398,59.868 L76.52,59.868 C76.6813341,59.868 76.7839998,59.9486659 76.828,60.11 L79.578,68.668 C79.5926667,68.726667 79.6146665,68.756 79.644,68.756 C79.6733335,68.756 79.6953333,68.726667 79.71,68.668 L82.46,60.11 C82.5040002,59.9486659 82.6066659,59.868 82.768,59.868 L83.89,59.89 C83.9926672,59.89 84.0623332,59.919333 84.099,59.978 C84.1356669,60.036667 84.1393335,60.1173328 84.11,60.22 L80.568,70.758 C80.5239998,70.9193341 80.4140009,71 80.238,71 L79.05,71 Z M90.952,69.834 C91.6120033,69.8193333 92.180331,69.6690014 92.657,69.383 C93.1336691,69.0969986 93.5039987,68.6973359 93.768,68.184 C93.7973335,68.1106663 93.8486663,68.0593335 93.922,68.03 C93.9953337,68.0006665 94.0686663,68.0079998 94.142,68.052 L94.78,68.404 C94.9560009,68.5066672 95.0000004,68.6313326 94.912,68.778 C94.5599982,69.511337 94.0320035,70.0943312 93.328,70.527 C92.6239965,70.9596688 91.7880048,71.176 90.82,71.176 C89.7933282,71.176 88.9280035,70.9340024 88.224,70.45 C87.5199965,69.9659976 87.0140015,69.2913377 86.706,68.426 C86.4273319,67.692663 86.288,66.6806731 86.288,65.39 C86.288,64.7593302 86.2989999,64.2570019 86.321,63.883 C86.3430001,63.5089981 86.3979996,63.1606683 86.486,62.838 C86.7353346,61.8846619 87.2376629,61.1220029 87.993,60.55 C88.7483371,59.9779971 89.661328,59.692 90.732,59.692 C92.0080064,59.692 93.0089964,60.0219967 93.735,60.682 C94.4610036,61.3420033 94.9266656,62.2733273 95.132,63.476 C95.2200004,63.9453357 95.264,64.6786617 95.264,65.676 C95.264,65.8666676 95.1686676,65.962 94.978,65.962 L87.938,65.962 C87.8646663,65.962 87.828,65.9986663 87.828,66.072 C87.828,66.805337 87.8719996,67.340665 87.96,67.678 C88.1213341,68.3380033 88.4623307,68.8623314 88.983,69.251 C89.5036693,69.6396686 90.159996,69.834 90.952,69.834 Z M90.732,61.056 C89.998663,61.056 89.3973357,61.2429981 88.928,61.617 C88.4586643,61.9910019 88.1506674,62.4933302 88.004,63.124 C87.9159996,63.4173348 87.8573335,63.9159965 87.828,64.62 C87.828,64.6933337 87.8646663,64.73 87.938,64.73 L93.592,64.73 C93.6653337,64.73 93.702,64.6933337 93.702,64.62 C93.6726665,63.9746634 93.628667,63.5053348 93.57,63.212 C93.4086659,62.5519967 93.0823358,62.0276686 92.591,61.639 C92.0996642,61.2503314 91.4800037,61.056 90.732,61.056 Z M98.652,71 C98.4613324,71 98.366,70.9046676 98.366,70.714 L98.366,55.886 C98.366,55.6953324 98.4613324,55.6 98.652,55.6 L99.642,55.6 C99.8326676,55.6 99.928,55.6953324 99.928,55.886 L99.928,70.714 C99.928,70.9046676 99.8326676,71 99.642,71 L98.652,71 Z M107.738,71.176 C106.667328,71.176 105.754337,70.9046694 104.999,70.362 C104.243663,69.8193306 103.719335,69.0713381 103.426,68.118 C103.220666,67.44333 103.118,66.541339 103.118,65.412 C103.118,64.2973278 103.213332,63.40267 103.404,62.728 C103.697335,61.7893286 104.221663,61.0486694 104.977,60.506 C105.732337,59.9633306 106.652661,59.692 107.738,59.692 C108.794005,59.692 109.699663,59.9633306 110.455,60.506 C111.210337,61.0486694 111.727332,61.7819954 112.006,62.706 C112.211334,63.4100035 112.314,64.3119945 112.314,65.412 C112.314,66.541339 112.211334,67.44333 112.006,68.118 C111.712665,69.0713381 111.188337,69.8193306 110.433,70.362 C109.677663,70.9046694 108.779339,71.176 107.738,71.176 Z M107.738,69.812 C108.442004,69.812 109.043331,69.6176686 109.542,69.229 C110.040669,68.8403314 110.377999,68.3160033 110.554,67.656 C110.671334,67.1866643 110.73,66.4460051 110.73,65.434 C110.73,64.3779947 110.671334,63.6373355 110.554,63.212 C110.392666,62.5519967 110.059003,62.0276686 109.553,61.639 C109.046997,61.2503314 108.427337,61.056 107.694,61.056 C106.989996,61.056 106.388669,61.2503314 105.89,61.639 C105.391331,62.0276686 105.054001,62.5519967 104.878,63.212 C104.760666,63.6373355 104.702,64.3779947 104.702,65.434 C104.702,66.4900053 104.760666,67.2306645 104.878,67.656 C105.039334,68.3160033 105.372997,68.8403314 105.879,69.229 C106.385003,69.6176686 107.004663,69.812 107.738,69.812 Z M124.128,62.64 C124.333334,63.3000033 124.436,64.2313273 124.436,65.434 C124.436,66.6513394 124.348001,67.5606637 124.172,68.162 C123.907999,69.1006714 123.424004,69.837664 122.72,70.373 C122.015996,70.908336 121.143339,71.176 120.102,71.176 C119.529997,71.176 119.002002,71.0623345 118.518,70.835 C118.033998,70.6076655 117.630668,70.2813355 117.308,69.856 C117.278667,69.8119998 117.249333,69.7973333 117.22,69.812 C117.190667,69.8266667 117.176,69.8559998 117.176,69.9 L117.176,74.982 C117.176,75.1726676 117.080668,75.268 116.89,75.268 L115.9,75.268 C115.709332,75.268 115.614,75.1726676 115.614,74.982 L115.614,60.154 C115.614,59.9633324 115.709332,59.868 115.9,59.868 L116.89,59.868 C117.080668,59.868 117.176,59.9633324 117.176,60.154 L117.176,60.99 C117.176,61.0340002 117.190667,61.0596666 117.22,61.067 C117.249333,61.0743334 117.278667,61.0633335 117.308,61.034 C117.630668,60.6086645 118.030331,60.2786678 118.507,60.044 C118.983669,59.8093322 119.51533,59.692 120.102,59.692 C121.128672,59.692 121.99033,59.9559974 122.687,60.484 C123.38367,61.0120026 123.863999,61.7306621 124.128,62.64 Z M122.368,68.206 C122.544001,67.8833317 122.672333,67.5203353 122.753,67.117 C122.833667,66.7136646 122.874,66.1526703 122.874,65.434 C122.874,64.7446632 122.844667,64.2056686 122.786,63.817 C122.727333,63.4283314 122.624667,63.0800015 122.478,62.772 C122.301999,62.2439974 121.990336,61.8260015 121.543,61.518 C121.095664,61.2099985 120.564003,61.056 119.948,61.056 C119.36133,61.056 118.870002,61.2099985 118.474,61.518 C118.077998,61.8260015 117.784668,62.2366641 117.594,62.75 C117.461999,63.0433348 117.366667,63.387998 117.308,63.784 C117.249333,64.180002 117.22,64.7299965 117.22,65.434 C117.22,66.1380035 117.249333,66.6916647 117.308,67.095 C117.366667,67.4983353 117.469333,67.8539985 117.616,68.162 C117.792001,68.6606692 118.081665,69.0603318 118.485,69.361 C118.888335,69.6616682 119.368664,69.812 119.926,69.812 C120.51267,69.812 121.018665,69.6653348 121.444,69.372 C121.869335,69.0786652 122.177332,68.6900024 122.368,68.206 Z M131.872,69.834 C132.532003,69.8193333 133.100331,69.6690014 133.577,69.383 C134.053669,69.0969986 134.423999,68.6973359 134.688,68.184 C134.717333,68.1106663 134.768666,68.0593335 134.842,68.03 C134.915334,68.0006665 134.988666,68.0079998 135.062,68.052 L135.7,68.404 C135.876001,68.5066672 135.92,68.6313326 135.832,68.778 C135.479998,69.511337 134.952004,70.0943312 134.248,70.527 C133.543996,70.9596688 132.708005,71.176 131.74,71.176 C130.713328,71.176 129.848004,70.9340024 129.144,70.45 C128.439996,69.9659976 127.934002,69.2913377 127.626,68.426 C127.347332,67.692663 127.208,66.6806731 127.208,65.39 C127.208,64.7593302 127.219,64.2570019 127.241,63.883 C127.263,63.5089981 127.318,63.1606683 127.406,62.838 C127.655335,61.8846619 128.157663,61.1220029 128.913,60.55 C129.668337,59.9779971 130.581328,59.692 131.652,59.692 C132.928006,59.692 133.928996,60.0219967 134.655,60.682 C135.381004,61.3420033 135.846666,62.2733273 136.052,63.476 C136.14,63.9453357 136.184,64.6786617 136.184,65.676 C136.184,65.8666676 136.088668,65.962 135.898,65.962 L128.858,65.962 C128.784666,65.962 128.748,65.9986663 128.748,66.072 C128.748,66.805337 128.792,67.340665 128.88,67.678 C129.041334,68.3380033 129.382331,68.8623314 129.903,69.251 C130.423669,69.6396686 131.079996,69.834 131.872,69.834 Z M131.652,61.056 C130.918663,61.056 130.317336,61.2429981 129.848,61.617 C129.378664,61.9910019 129.070667,62.4933302 128.924,63.124 C128.836,63.4173348 128.777333,63.9159965 128.748,64.62 C128.748,64.6933337 128.784666,64.73 128.858,64.73 L134.512,64.73 C134.585334,64.73 134.622,64.6933337 134.622,64.62 C134.592667,63.9746634 134.548667,63.5053348 134.49,63.212 C134.328666,62.5519967 134.002336,62.0276686 133.511,61.639 C133.019664,61.2503314 132.400004,61.056 131.652,61.056 Z M143.774,59.758 C144.258002,59.758 144.661332,59.8459991 144.984,60.022 C145.130667,60.080667 145.182,60.1979991 145.138,60.374 L144.918,61.342 C144.874,61.5180009 144.756668,61.576667 144.566,61.518 C144.287332,61.4299996 143.928002,61.3933333 143.488,61.408 C142.72533,61.4373335 142.094669,61.719664 141.596,62.255 C141.097331,62.790336 140.848,63.4686626 140.848,64.29 L140.848,70.714 C140.848,70.9046676 140.752668,71 140.562,71 L139.572,71 C139.381332,71 139.286,70.9046676 139.286,70.714 L139.286,60.154 C139.286,59.9633324 139.381332,59.868 139.572,59.868 L140.562,59.868 C140.752668,59.868 140.848,59.9633324 140.848,60.154 L140.848,61.386 C140.848,61.444667 140.859,61.4776666 140.881,61.485 C140.903,61.4923334 140.928667,61.4740002 140.958,61.43 C141.266002,60.9019974 141.658331,60.4913348 142.135,60.198 C142.611669,59.9046652 143.157997,59.758 143.774,59.758 Z M150.946,71.11 C150.124663,71.11 149.395003,70.9780013 148.757,70.714 C148.118997,70.4499987 147.627668,70.0980022 147.283,69.658 C146.938332,69.2179978 146.766,68.7266694 146.766,68.184 L146.766,67.986 C146.766,67.7953324 146.861332,67.7 147.052,67.7 L147.998,67.7 C148.086,67.7 148.155666,67.7183332 148.207,67.755 C148.258334,67.7916668 148.284,67.839333 148.284,67.898 L148.284,68.096 C148.284,68.5800024 148.533331,69.0016649 149.032,69.361 C149.530669,69.7203351 150.16133,69.9 150.924,69.9 C151.68667,69.9 152.302664,69.7276684 152.772,69.383 C153.241336,69.0383316 153.476,68.6020026 153.476,68.074 C153.476,67.7073315 153.358668,67.4066678 153.124,67.172 C152.889332,66.9373322 152.603335,66.7540007 152.266,66.622 C151.928665,66.4899993 151.42267,66.3213344 150.748,66.116 C149.926663,65.8813322 149.252003,65.6466678 148.724,65.412 C148.195997,65.1773322 147.748668,64.8510021 147.382,64.433 C147.015332,64.0149979 146.832,63.4833366 146.832,62.838 C146.832,61.8993286 147.20233,61.1513361 147.943,60.594 C148.68367,60.0366639 149.655327,59.758 150.858,59.758 C151.664671,59.758 152.379664,59.8899987 153.003,60.154 C153.626336,60.4180013 154.106665,60.7809977 154.444,61.243 C154.781335,61.7050023 154.95,62.2219971 154.95,62.794 C154.95,62.9846676 154.854668,63.08 154.664,63.08 L153.762,63.08 C153.571332,63.08 153.476,63.0286672 153.476,62.926 L153.476,62.794 C153.476,62.2953308 153.237669,61.877335 152.761,61.54 C152.284331,61.202665 151.642671,61.034 150.836,61.034 C150.087996,61.034 149.486669,61.1843318 149.032,61.485 C148.577331,61.7856682 148.35,62.1999974 148.35,62.728 C148.35,63.2266692 148.566331,63.6079987 148.999,63.872 C149.431669,64.1360013 150.109995,64.3999987 151.034,64.664 C151.884671,64.8986678 152.573997,65.1259989 153.102,65.346 C153.630003,65.5660011 154.084665,65.8886645 154.466,66.314 C154.847335,66.7393355 155.038,67.28933 155.038,67.964 C155.038,68.9173381 154.66767,69.6799971 153.927,70.252 C153.18633,70.8240029 152.192673,71.11 150.946,71.11 Z M168.458,55.578 C169.748673,55.578 170.786329,55.973996 171.571,56.766 C172.355671,57.558004 172.748,58.5993269 172.748,59.89 C172.748,61.1660064 172.348337,62.1926628 171.549,62.97 C170.749663,63.7473372 169.69734,64.136 168.392,64.136 L164.124,64.136 C164.050666,64.136 164.014,64.1726663 164.014,64.246 L164.014,70.714 C164.014,70.9046676 163.918668,71 163.728,71 L162.738,71 C162.547332,71 162.452,70.9046676 162.452,70.714 L162.452,55.864 C162.452,55.6733324 162.547332,55.578 162.738,55.578 L168.458,55.578 Z M168.282,62.838 C169.147338,62.838 169.851331,62.570336 170.394,62.035 C170.936669,61.499664 171.208,60.7920044 171.208,59.912 C171.208,59.0173289 170.936669,58.2986694 170.394,57.756 C169.851331,57.2133306 169.147338,56.942 168.282,56.942 L164.124,56.942 C164.050666,56.942 164.014,56.9786663 164.014,57.052 L164.014,62.728 C164.014,62.8013337 164.050666,62.838 164.124,62.838 L168.282,62.838 Z M179.59,71.176 C178.519328,71.176 177.606337,70.9046694 176.851,70.362 C176.095663,69.8193306 175.571335,69.0713381 175.278,68.118 C175.072666,67.44333 174.97,66.541339 174.97,65.412 C174.97,64.2973278 175.065332,63.40267 175.256,62.728 C175.549335,61.7893286 176.073663,61.0486694 176.829,60.506 C177.584337,59.9633306 178.504661,59.692 179.59,59.692 C180.646005,59.692 181.551663,59.9633306 182.307,60.506 C183.062337,61.0486694 183.579332,61.7819954 183.858,62.706 C184.063334,63.4100035 184.166,64.3119945 184.166,65.412 C184.166,66.541339 184.063334,67.44333 183.858,68.118 C183.564665,69.0713381 183.040337,69.8193306 182.285,70.362 C181.529663,70.9046694 180.631339,71.176 179.59,71.176 Z M179.59,69.812 C180.294004,69.812 180.895331,69.6176686 181.394,69.229 C181.892669,68.8403314 182.229999,68.3160033 182.406,67.656 C182.523334,67.1866643 182.582,66.4460051 182.582,65.434 C182.582,64.3779947 182.523334,63.6373355 182.406,63.212 C182.244666,62.5519967 181.911003,62.0276686 181.405,61.639 C180.898997,61.2503314 180.279337,61.056 179.546,61.056 C178.841996,61.056 178.240669,61.2503314 177.742,61.639 C177.243331,62.0276686 176.906001,62.5519967 176.73,63.212 C176.612666,63.6373355 176.554,64.3779947 176.554,65.434 C176.554,66.4900053 176.612666,67.2306645 176.73,67.656 C176.891334,68.3160033 177.224997,68.8403314 177.731,69.229 C178.237003,69.6176686 178.856663,69.812 179.59,69.812 Z M191.822,59.758 C192.306002,59.758 192.709332,59.8459991 193.032,60.022 C193.178667,60.080667 193.23,60.1979991 193.186,60.374 L192.966,61.342 C192.922,61.5180009 192.804668,61.576667 192.614,61.518 C192.335332,61.4299996 191.976002,61.3933333 191.536,61.408 C190.77333,61.4373335 190.142669,61.719664 189.644,62.255 C189.145331,62.790336 188.896,63.4686626 188.896,64.29 L188.896,70.714 C188.896,70.9046676 188.800668,71 188.61,71 L187.62,71 C187.429332,71 187.334,70.9046676 187.334,70.714 L187.334,60.154 C187.334,59.9633324 187.429332,59.868 187.62,59.868 L188.61,59.868 C188.800668,59.868 188.896,59.9633324 188.896,60.154 L188.896,61.386 C188.896,61.444667 188.907,61.4776666 188.929,61.485 C188.951,61.4923334 188.976667,61.4740002 189.006,61.43 C189.314002,60.9019974 189.706331,60.4913348 190.183,60.198 C190.659669,59.9046652 191.205997,59.758 191.822,59.758 Z M200.336,60.88 C200.336,61.0706676 200.240668,61.166 200.05,61.166 L197.652,61.166 C197.578666,61.166 197.542,61.2026663 197.542,61.276 L197.542,67.7 C197.542,68.4040035 197.699665,68.8989986 198.015,69.185 C198.330335,69.4710014 198.82533,69.614 199.5,69.614 L199.984,69.614 C200.174668,69.614 200.27,69.7093324 200.27,69.9 L200.27,70.67 C200.27,70.8606676 200.174668,70.9633333 199.984,70.978 L199.236,70.978 C198.179995,70.978 197.380669,70.780002 196.838,70.384 C196.295331,69.987998 196.024,69.254672 196.024,68.184 L196.024,61.276 C196.024,61.2026663 195.987334,61.166 195.914,61.166 L194.66,61.166 C194.469332,61.166 194.374,61.0706676 194.374,60.88 L194.374,60.154 C194.374,59.9633324 194.469332,59.868 194.66,59.868 L195.914,59.868 C195.987334,59.868 196.024,59.8313337 196.024,59.758 L196.024,57.294 C196.024,57.1033324 196.119332,57.008 196.31,57.008 L197.256,57.008 C197.446668,57.008 197.542,57.1033324 197.542,57.294 L197.542,59.758 C197.542,59.8313337 197.578666,59.868 197.652,59.868 L200.05,59.868 C200.240668,59.868 200.336,59.9633324 200.336,60.154 L200.336,60.88 Z M207.2,59.692 C208.520007,59.692 209.542996,60.02933 210.269,60.704 C210.995004,61.37867 211.358,62.2733278 211.358,63.388 L211.358,70.714 C211.358,70.9046676 211.262668,71 211.072,71 L210.082,71 C209.891332,71 209.796,70.9046676 209.796,70.714 L209.796,69.922 C209.796,69.8779998 209.781333,69.8486667 209.752,69.834 C209.722667,69.8193333 209.693333,69.8339998 209.664,69.878 C209.267998,70.3033355 208.773003,70.6259989 208.179,70.846 C207.584997,71.0660011 206.936004,71.176 206.232,71.176 C205.205328,71.176 204.34367,70.9120026 203.647,70.384 C202.95033,69.8559974 202.602,69.0493388 202.602,67.964 C202.602,66.8639945 203.001663,65.9950032 203.801,65.357 C204.600337,64.7189968 205.711326,64.4 207.134,64.4 L209.686,64.4 C209.759334,64.4 209.796,64.3633337 209.796,64.29 L209.796,63.476 C209.796,62.7279963 209.587002,62.1376688 209.169,61.705 C208.750998,61.2723312 208.102004,61.056 207.222,61.056 C206.532663,61.056 205.968002,61.1879987 205.528,61.452 C205.087998,61.7160013 204.809334,62.0826643 204.692,62.552 C204.648,62.7280009 204.538001,62.8013335 204.362,62.772 L203.284,62.64 C203.093332,62.6106665 203.005333,62.5300007 203.02,62.398 C203.166667,61.5913293 203.617663,60.9386692 204.373,60.44 C205.128337,59.9413308 206.070661,59.692 207.2,59.692 Z M206.584,69.834 C207.449338,69.834 208.200997,69.6176688 208.839,69.185 C209.477003,68.7523312 209.796,68.169337 209.796,67.436 L209.796,65.742 C209.796,65.6686663 209.759334,65.632 209.686,65.632 L207.376,65.632 C206.407995,65.632 205.63067,65.829998 205.044,66.226 C204.45733,66.622002 204.164,67.1719965 204.164,67.876 C204.164,68.5213366 204.391331,69.0089983 204.846,69.339 C205.300669,69.6690016 205.879996,69.834 206.584,69.834 Z M214.878,71 C214.687332,71 214.592,70.9046676 214.592,70.714 L214.592,55.886 C214.592,55.6953324 214.687332,55.6 214.878,55.6 L215.868,55.6 C216.058668,55.6 216.154,55.6953324 216.154,55.886 L216.154,70.714 C216.154,70.9046676 216.058668,71 215.868,71 L214.878,71 Z" id="Developers-Portal" fill="#FFFFFF"></path>
            </g>
        </g>
    </g>
</svg>