<svg xmlns="http://www.w3.org/2000/svg" width="48" height="36" viewBox="0 0 48 36">
    <g fill="none" fill-rule="evenodd">
        <path fill="#026FD0" d="M0 0h48v36H0z"/>
        <path fill="#FFF" fill-rule="nonzero" d="M7.74 12L3 23.985h5.674l.704-1.911h1.608l.703 1.91h6.246v-1.458l.557 1.459h3.23l.557-1.49v1.49h12.99l1.58-1.862 1.479 1.862L45 24l-4.755-5.974L45 12h-6.568l-1.538 1.827L35.462 12H21.33l-1.213 3.093L18.875 12h-5.663v1.409L12.582 12H7.74zm1.098 1.702h2.766l3.144 8.127v-8.127h3.03l2.429 5.827 2.238-5.827h3.015v8.6h-1.835l-.015-6.74-2.674 6.74h-1.641l-2.69-6.74v6.74h-3.774l-.715-1.928H8.25L7.536 22.3H5.514l3.324-8.598zm18.3 0h7.46l2.281 2.816 2.355-2.816h2.282l-3.467 4.322 3.467 4.272H39.13l-2.282-2.848-2.367 2.848h-7.344v-8.594zm-16.954 1.455L8.91 18.59h2.546l-1.272-3.434zm18.796.325v1.57h4.07v1.75h-4.07v1.714h4.565l2.12-2.524-2.03-2.511H28.98v.001z"/>
    </g>
</svg>
