<svg xmlns="http://www.w3.org/2000/svg" width="115" height="20" viewBox="0 0 115 20">
    <path fill="#000" fill-rule="evenodd" d="M48.086 9.19l-6.078-.002a.913.913 0 0 0-.914.91c0 .504.41.912.914.912l5.163.002-.001 4.596-2.583 2.57-5.19-.002-2.568-2.558.003-11.16 2.602-2.637 5.205.002 2.747 2.84c.35.363.93.374 1.293.024a.908.908 0 0 0 .024-1.287L45.686.28a.91.91 0 0 0-.657-.278L39.05 0a.918.918 0 0 0-.653.272l-3.132 3.175a.91.91 0 0 0-.262.638L35 15.995c0 .242.097.474.268.644l3.102 3.092a.91.91 0 0 0 .646.267l5.95.002a.916.916 0 0 0 .647-.266l3.117-3.103a.916.916 0 0 0 .268-.646L49 10.101a.913.913 0 0 0-.914-.911M69.18 6.55l-2.477 2.473-7.883-.002.002-7.204 7.95.002 2.409 2.41v2.32zM67.792.268a.913.913 0 0 0-.642-.266L57.915 0a.91.91 0 0 0-.91.908L57 19.088a.908.908 0 0 0 1.818 0l.002-8.25 8.084.003 2.275 2.273-.001 5.978a.908.908 0 1 0 1.817 0l.002-6.353a.908.908 0 0 0-.266-.642l-2.265-2.265 2.267-2.263a.91.91 0 0 0 .266-.642L71 3.852a.908.908 0 0 0-.266-.642L67.792.269zm24.295 17.914l-5.074-.001L87.02.909c0-.368-.223-.7-.564-.84a.92.92 0 0 0-.997.197l-6.118 6.08a.905.905 0 0 0 0 1.285.918.918 0 0 0 1.293 0l4.556-4.528-.004 15.078-5.27-.001a.912.912 0 0 0-.915.908c0 .502.41.908.914.908L92.086 20a.91.91 0 0 0 .914-.908.91.91 0 0 0-.913-.909m21.078-2.524l-2.538 2.52-7.795-.003.005-16.35 7.766.053 2.565 2.552-.003 11.228zm1.567-12.248a.91.91 0 0 1 .268.643l-.004 11.982a.907.907 0 0 1-.269.644l-3.073 3.053a.916.916 0 0 1-.648.267l-9.09-.003a.914.914 0 0 1-.916-.911L101.005.91a.914.914 0 0 1 .922-.91l9.064.062c.24.001.47.098.642.266l3.1 3.083zM10 1.5a.5.5 0 1 1-1.001-.003A.5.5 0 0 1 10 1.5zm-8 9a.5.5 0 1 1-1.001-.003A.5.5 0 0 1 2 10.5zm16 0a.5.5 0 1 1-1.001-.003A.5.5 0 0 1 18 10.5zM0 1.498A1.501 1.501 0 0 1 3 1.5a1.501 1.501 0 0 1-3 0zm8 9a1.501 1.501 0 0 1 3 .001 1.501 1.501 0 0 1-3 0zm8-9a1.501 1.501 0 0 1 3 .001 1.501 1.501 0 0 1-3 0zM10 18.5a.5.5 0 1 1-1.001-.002A.5.5 0 0 1 10 18.5zm-10 0a1.501 1.501 0 0 1 3 0 1.501 1.501 0 0 1-3 0zm16 0a1.501 1.501 0 0 1 3 0 1.501 1.501 0 0 1-3 0z"/>
</svg>
