<?xml version="1.0" encoding="UTF-8"?>
<svg width="48px" height="36px" viewBox="0 0 48 36" version="1.1" xmlns="http://www.w3.org/2000/svg" xmlns:xlink="http://www.w3.org/1999/xlink">
    <!-- Generator: Sketch 51.2 (57519) - http://www.bohemiancoding.com/sketch -->
    <title>Amex</title>
    <desc>Created with Sketch.</desc>
    <defs></defs>
    <g id="gr1d_devportal_gravitee" stroke="none" stroke-width="1" fill="none" fill-rule="evenodd">
        <g id="components" transform="translate(-2214.000000, -1006.000000)">
            <g id="bandeiras-copy" transform="translate(2078.000000, 1006.000000)">
                <g id="Amex" transform="translate(136.000000, 0.000000)">
                    <polygon id="Shape" fill="#026FD0" points="0 9.55902024e-14 48 2.66453526e-14 48 36 0 36"></polygon>
                    <path d="M7.74004089,12 L3,23.9845869 L8.67449294,23.9845869 L9.37796423,22.0737446 L10.9859456,22.0737446 L11.6894169,23.9845869 L17.9354391,23.9845869 L17.9354391,22.526174 L18.4919975,23.9845869 L21.7229312,23.9845869 L22.2794895,22.4953479 L22.2794895,23.9845869 L35.2695245,23.9845869 L36.8490446,22.1233671 L38.3280453,23.9845869 L45,24 L40.2449881,18.0257511 L45,12 L38.431526,12 L36.8939576,13.8268225 L35.461515,12 L21.3300665,12 L20.116595,15.0933241 L18.8746622,12 L13.2120144,12 L13.2120144,13.4087905 L12.5820818,12 C12.5820818,12 7.74004089,12 7.74004089,12 Z M8.83802205,13.7018264 L11.604033,13.7018264 L14.7481022,21.8286395 L14.7481022,13.7018264 L17.7781616,13.7018264 L20.2065853,19.5287115 L22.4446638,13.7018264 L25.4595878,13.7018264 L25.4595878,22.301557 L23.6250676,22.301557 L23.6100966,15.5628583 L20.9355567,22.301557 L19.2945075,22.301557 L16.6049966,15.5628583 L16.6049966,22.301557 L12.8309949,22.301557 L12.1155139,20.3736098 L8.25004113,20.3736098 L7.5360408,22.2998653 L5.51397213,22.2998653 C5.51397213,22.2998653 8.83802205,13.7018264 8.83802205,13.7018264 Z M27.1379821,13.7018264 L34.5974759,13.7018264 L36.8789866,16.5175276 L39.2340361,13.7018264 L41.5155468,13.7018264 L38.0490258,18.0240594 L41.5155468,22.2964819 L39.1305554,22.2964819 L36.8490446,19.4480749 L34.4819855,22.2964819 L27.1379821,22.2964819 L27.1379821,13.7018264 Z M10.1836001,15.156856 L8.91008014,18.5913349 L11.4556394,18.5913349 L10.1836001,15.156856 Z M28.98007,15.4824097 L28.98007,17.0522853 L33.0495429,17.0522853 L33.0495429,18.8020425 L28.98007,18.8020425 L28.98007,20.5158986 L33.5445721,20.5158986 L35.6655151,17.9915416 L33.6345625,15.480906 L28.98007,15.480906 L28.98007,15.4824097 Z" id="Logo_Amex" fill="#FFFFFF" fill-rule="nonzero"></path>
                </g>
            </g>
        </g>
    </g>
</svg>