<?xml version="1.0" encoding="UTF-8"?>
<svg width="48px" height="36px" viewBox="0 0 48 36" version="1.1" xmlns="http://www.w3.org/2000/svg" xmlns:xlink="http://www.w3.org/1999/xlink">
    <!-- Generator: Sketch 51.2 (57519) - http://www.bohemiancoding.com/sketch -->
    <title>Diners Club</title>
    <desc>Created with Sketch.</desc>
    <defs></defs>
    <g id="gr1d_devportal_gravitee" stroke="none" stroke-width="1" fill="none" fill-rule="evenodd">
        <g id="components" transform="translate(-2146.000000, -1062.000000)">
            <g id="bandeiras-copy" transform="translate(2078.000000, 1006.000000)">
                <g id="Diners-Club" transform="translate(68.000000, 56.000000)">
                    <polygon id="Shape" fill="#FAFAFA" points="0 9.55902024e-14 48 2.66453526e-14 48 36 0 36"></polygon>
                    <path d="M29.3054255,17.4836172 C29.3008298,14.6394257 27.5222766,12.213447 25.0181702,11.2529364 L25.0181702,23.7137236 C27.5222766,22.752064 29.3008298,20.3283832 29.3054255,17.4836172 Z M20.2385957,23.7114257 L20.2385957,11.2540853 C17.7356383,12.2180428 15.9605319,14.6405747 15.9542128,17.4836172 C15.9605319,20.3260853 17.7356383,22.7486172 20.2385957,23.7114257 Z M22.6289574,6.95131936 C16.8124681,6.95361723 12.1006809,11.6671279 12.0995319,17.4836172 C12.1006809,23.2995321 16.8124681,28.0118938 22.6289574,28.0130428 C28.4460213,28.0118938 33.1595319,23.2995321 33.1612553,17.4836172 C33.1595319,11.6671279 28.4460213,6.95361723 22.6289574,6.95131936 Z M22.6036809,29.007447 C16.2385745,29.0373194 11,23.8808938 11,17.6036811 C11,10.7439577 16.2385745,5.99885127 22.6036809,6.00000021 L25.5863191,6.00000021 C31.8761702,5.99885127 37.6168298,10.7416598 37.6168298,17.6036811 C37.6168298,23.878596 31.8761702,29.007447 25.5863191,29.007447 L22.6036809,29.007447 Z" id="Fill-1" fill="#004A98"></path>
                </g>
            </g>
        </g>
    </g>
</svg>