<?xml version="1.0" encoding="UTF-8"?>
<svg width="48px" height="36px" viewBox="0 0 48 36" version="1.1" xmlns="http://www.w3.org/2000/svg" xmlns:xlink="http://www.w3.org/1999/xlink">
    <!-- Generator: Sketch 51.2 (57519) - http://www.bohemiancoding.com/sketch -->
    <title>Discover</title>
    <desc>Created with Sketch.</desc>
    <defs>
        <linearGradient x1="0%" y1="0%" x2="100%" y2="100%" id="linearGradient-1">
            <stop stop-color="#9B2D12" offset="0%"></stop>
            <stop stop-color="#DE5013" offset="29.4633436%"></stop>
            <stop stop-color="#F9A733" offset="100%"></stop>
        </linearGradient>
    </defs>
    <g id="gr1d_devportal_gravitee" stroke="none" stroke-width="1" fill="none" fill-rule="evenodd">
        <g id="components" transform="translate(-2214.000000, -1062.000000)">
            <g id="bandeiras-copy" transform="translate(2078.000000, 1006.000000)">
                <g id="Discover" transform="translate(136.000000, 56.000000)">
                    <polygon id="Shape" fill="#FAFAFA" points="0 9.55902024e-14 48 2.66453526e-14 48 36 0 36"></polygon>
                    <path d="M35.9999994,29.9999994 C39.9999993,27.9999995 43.9999995,24.9999997 48,21 L48,35 C48,35.5522847 47.5522847,36 47,36 L18,36 C25.9999997,33.9999994 31.9999995,31.9999992 35.9999994,29.9999994 Z" id="Shape_corner" fill="#F48120"></path>
                    <path d="M8.95595614,19.4292437 C8.59981416,19.7465076 8.14644118,19.885241 7.42144583,19.885241 L7.12060955,19.885241 L7.12060955,16.0991959 L7.42144583,16.0991959 C8.14644118,16.0991959 8.58241962,16.2285915 8.95595614,16.5616408 C9.34153503,16.9058065 9.57323917,17.4367288 9.57323917,17.9858821 C9.57323917,18.5377033 9.34153503,19.0875236 8.95595614,19.4292437 L8.95595614,19.4292437 Z M7.64601375,15.1293956 C9.46173574,15.1293956 10.7284148,16.3035165 10.7284148,17.9938859 C10.7284148,18.8382925 10.3401598,19.6533516 9.68585765,20.1931671 C9.13503066,20.6489421 8.50659729,20.855486 7.63597844,20.855486 L6,20.855486 L6,15.1293956 L7.64601375,15.1293956 Z M11.2451217,15.1293956 L12.3612711,15.1293956 L12.3612711,20.855486 L11.2451217,20.855486 L11.2451217,15.1293956 Z M15.1022487,17.3240079 C16.3765099,17.7884537 16.7565137,18.2013192 16.7565137,19.1122022 C16.7565137,20.2176233 15.9371864,20.9937748 14.7744285,20.9937748 C13.9218733,20.9937748 13.3030292,20.6567236 12.7867683,19.9025827 L13.5088645,19.2053581 C13.7668835,19.7047097 14.1979558,19.9706155 14.7307192,19.9706155 C15.2311466,19.9706155 15.601338,19.6282284 15.601338,19.1624486 C15.601338,18.9234446 15.4898346,18.7166784 15.2659357,18.5723867 C15.1528712,18.5019083 14.9296413,18.3978582 14.4903178,18.2455627 C13.4392864,17.864268 13.0791303,17.4627413 13.0791303,16.6712491 C13.0791303,15.7390225 13.8538562,15.0340164 14.8703215,15.0340164 C15.4985319,15.0340164 16.0747816,15.2478971 16.5562535,15.6703227 L15.9735365,16.4324675 C15.6791674,16.1054211 15.4028619,15.9715789 15.0674596,15.9715789 C14.5835347,15.9715789 14.2316298,16.2443769 14.2316298,16.6041057 C14.2316298,16.913588 14.4285449,17.077667 15.1022487,17.3240079 Z M17.1084185,17.9938859 C17.1084185,16.3304183 18.4669764,15 20.1638357,15 C20.6490987,15 21.0518491,15.1024938 21.5426872,15.3499463 L21.5426872,16.6643569 C21.0779409,16.2079149 20.6720684,16.020269 20.140866,16.020269 C19.0880505,16.020269 18.2633711,16.8891318 18.2633711,17.9858821 C18.2633711,19.1466632 19.0621818,19.960166 20.1899275,19.960166 C20.6997212,19.960166 21.0937744,19.7827472 21.5426872,19.3329751 L21.5426872,20.6489421 C21.0346776,20.887946 20.6221148,20.9826583 20.140866,20.9826583 C18.4341944,20.9826583 17.1084185,19.6778078 17.1084185,17.9938859 Z M30.617283,18.973691 L32.1703029,15.1293956 L33.3818993,15.1293956 L30.8998327,21 L30.2992752,21 L27.8644862,15.1293956 L29.0856718,15.1293956 L30.617283,18.973691 Z M33.8901319,20.855486 L33.8901319,15.1293956 L37.0664189,15.1293956 L37.0664189,16.0991959 L35.0107415,16.0991959 L35.0107415,17.3695854 L36.9883665,17.3695854 L36.9883665,18.339608 L35.0107415,18.339608 L35.0107415,19.885241 L37.0664189,19.885241 L37.0664189,20.855486 L33.8901319,20.855486 Z M39.2541163,17.7624412 L38.9289723,17.7624412 L38.9289723,16.0304962 L39.2724029,16.0304962 C39.9721985,16.0304962 40.347073,16.3233038 40.347073,16.881128 C40.347073,17.4542928 39.9721985,17.7624412 39.2541163,17.7624412 L39.2541163,17.7624412 Z M41.5004646,16.8188758 C41.5004646,15.7465817 40.7627579,15.1293956 39.469541,15.1293956 L37.8059097,15.1293956 L37.8059097,20.855486 L38.9289723,20.855486 L38.9289723,18.5532664 L39.0745958,18.5532664 L40.6220405,20.855486 L42,20.855486 L40.1929753,18.4421018 C41.0375023,18.2700189 41.5004646,17.6950754 41.5004646,16.8188758 L41.5004646,16.8188758 Z" id="Letters" fill="#000000"></path>
                    <path d="M28,18.0002234 C28,19.6570833 26.6574802,21 24.9998883,21 C23.3427433,21 22,19.6570833 22,18.0002234 C22,16.3431402 23.3427433,15 24.9998883,15 C26.6574802,15 28,16.3431402 28,18.0002234" id="O" fill="url(#linearGradient-1)"></path>
                </g>
            </g>
        </g>
    </g>
</svg>