<?xml version="1.0" encoding="UTF-8"?>
<svg width="48px" height="36px" viewBox="0 0 48 36" version="1.1" xmlns="http://www.w3.org/2000/svg" xmlns:xlink="http://www.w3.org/1999/xlink">
    <!-- Generator: Sketch 51.2 (57519) - http://www.bohemiancoding.com/sketch -->
    <title>Elo</title>
    <desc>Created with Sketch.</desc>
    <defs></defs>
    <g id="gr1d_devportal_gravitee" stroke="none" stroke-width="1" fill="none" fill-rule="evenodd">
        <g id="components" transform="translate(-2282.000000, -1006.000000)">
            <g id="bandeiras-copy" transform="translate(2078.000000, 1006.000000)">
                <g id="Elo" transform="translate(204.000000, 0.000000)">
                    <polygon id="Shape" fill="#000000" points="0 9.55902024e-14 48 2.66453526e-14 48 36 0 36"></polygon>
                    <path d="M18.4653,15.92154 L11.8503,18.77154 C11.8383,18.65754 11.8323,18.54354 11.8323,18.42654 C11.8323,16.33554 13.5303,14.63754 15.6243,14.63754 C16.7553,14.63754 17.7723,15.13254 18.4653,15.92154 M15.6243,11.80254 C18.7443,11.80254 21.3633,13.96554 22.0623,16.86954 L19.3923,18.03654 L19.3923,18.03054 L16.6593,19.23354 L10.1103,22.09854 C9.4083,21.04554 9.0003,19.78254 9.0003,18.42654 C9.0003,14.76654 11.9643,11.80254 15.6243,11.80254 Z M20.2524,23.16354 C17.8794,25.41354 14.7414,25.63554 11.9844,23.96454 L13.5444,21.59454 C15.1104,22.53054 16.6884,22.37754 18.2724,21.13554 L20.2524,23.16354 Z M22.9476,21.52584 L22.9296,8.99784 L25.3026,8.99784 L25.3026,21.18684 C25.3026,21.30384 25.3176,21.40584 25.4736,21.46584 L27.5346,22.26984 L26.6076,24.68784 L24.1866,23.66484 C23.2686,23.27484 22.9506,22.71384 22.9476,21.52584 Z" fill="#FFFFFF"></path>
                    <path d="M31.8834,21.31494 C30.9924,20.62494 30.4224,19.54194 30.4224,18.32994 C30.4224,17.24994 30.8724,16.27494 31.5984,15.58794 L30.0684,13.10694 C28.5264,14.32494 27.5364,16.21194 27.5364,18.32994 C27.5364,20.61294 28.6854,22.62594 30.4374,23.82594 L31.8834,21.31494 Z" id="Blue" fill="#009DD7"></path>
                    <path d="M32.9205,14.77314 C33.3225,14.62914 33.7515,14.55114 34.2015,14.55114 C35.8185,14.55114 37.1985,15.56814 37.7355,16.99614 L40.6755,16.75014 C39.9675,13.83414 37.3365,11.66514 34.2015,11.66514 C33.3135,11.66514 32.4705,11.83914 31.6965,12.15414 L32.9205,14.77314 Z" id="Yellow" fill="#FFF200"></path>
                    <path d="M37.974,18.51144 C37.881,20.51544 36.225,22.10844 34.2,22.10844 C33.882,22.10844 33.573,22.06944 33.282,21.99444 L32.127,24.66444 C32.781,24.87744 33.477,24.99144 34.2,24.99144 C37.788,24.99144 40.713,22.15644 40.857,18.60144 L37.974,18.51144 Z" id="Red" fill="#E33206"></path>
                </g>
            </g>
        </g>
    </g>
</svg>