<?xml version="1.0" encoding="UTF-8"?>
<svg width="48px" height="36px" viewBox="0 0 48 36" version="1.1" xmlns="http://www.w3.org/2000/svg" xmlns:xlink="http://www.w3.org/1999/xlink">
    <!-- Generator: Sketch 51.2 (57519) - http://www.bohemiancoding.com/sketch -->
    <title>Hiper</title>
    <desc>Created with Sketch.</desc>
    <defs></defs>
    <g id="gr1d_devportal_gravitee" stroke="none" stroke-width="1" fill="none" fill-rule="evenodd">
        <g id="components" transform="translate(-2078.000000, -1062.000000)">
            <g id="bandeiras-copy" transform="translate(2078.000000, 1006.000000)">
                <g id="Hiper" transform="translate(0.000000, 56.000000)">
                    <polygon id="Shape" fill="#FAFAFA" points="0 9.55902024e-14 48 2.66453526e-14 48 36 0 36"></polygon>
                    <path d="M14.0651192,8.08625725 L9.5101702,8.08625725 C7.49747216,8.18141804 5.85230353,8.99205333 5.37727608,10.6637082 C5.12958196,11.5355122 4.99326824,12.4929867 4.79958196,13.3967122 C3.81493098,17.9919514 2.94191922,22.713669 1.99997412,27.2171122 L37.4620761,27.2171122 C40.2036212,27.2171122 42.0860447,26.6377788 42.5947192,24.4619357 C42.8310251,23.4511435 43.0574094,22.3061945 43.2835349,21.195669 C44.1649153,16.8657239 45.0470722,12.5360376 45.9499349,8.08625725 L14.0651192,8.08625725 Z" id="Fill-1" fill="#971B1E"></path>
                    <path d="M32.3960541,19.507018 C31.9036855,19.9890337 30.5215678,20.1259514 30.6629718,18.9737553 C30.7803914,18.0168847 31.8223286,17.8134494 32.9514894,17.9516612 C32.8675443,18.4750886 32.771262,19.1397475 32.3960541,19.507018 Z M30.8406973,15.7741788 C30.7936776,16.0381788 30.7214659,16.2770729 30.6629718,16.5295984 C31.2267757,16.3882808 32.9823757,15.9548376 33.15156,16.7073239 C33.2077247,16.9573475 33.1108384,17.2229867 33.0404384,17.4183984 C31.4528149,17.268022 30.1588698,17.5317631 29.8186031,18.6626494 C29.5906659,19.4201396 29.8441404,20.1655514 30.3296933,20.3736455 C31.2648227,20.774218 32.4022659,20.3153239 32.7960227,19.6848298 C32.7551286,19.9031043 32.7163914,20.1235357 32.7293325,20.395818 L33.5515286,20.395818 C33.5601561,19.6084769 33.6747286,18.9711671 33.7959443,18.2626808 C33.8991286,17.6593631 34.0933325,17.0620847 34.0624463,16.5295984 C33.9918737,15.3101082 31.9715835,15.7415671 30.8406973,15.7741788 Z M39.0841404,19.8847278 C38.4408776,19.8985318 38.121058,19.5004612 38.1063914,18.8404612 C38.0808541,17.6845553 38.5878894,16.4003592 39.6173169,16.2851827 C40.096658,16.2316063 40.4437404,16.3430729 40.7950502,16.4629945 C40.4725561,17.7613396 40.5889404,19.8524612 39.0841404,19.8847278 Z M41.2171051,13.774422 C41.1352306,14.4923984 41.0257482,15.1828533 40.8839129,15.8407827 C38.5402659,15.0989945 37.1030188,16.8232769 37.1287286,18.9515827 C37.1338188,19.3631122 37.2046502,19.7712769 37.4620933,20.0624533 C37.9057169,20.5642259 39.1760227,20.68432 39.8173875,20.2625239 C39.9415365,20.1809082 40.06836,20.0323435 40.1506659,19.9292455 C40.2125247,19.8515984 40.3106188,19.6485082 40.3283051,19.7069161 C40.294658,19.9325239 40.2442737,20.1414808 40.2395286,20.395818 L41.1060698,20.395818 C41.2730973,18.0001475 41.7894502,15.9538886 42.1725953,13.774422 L41.2171051,13.774422 Z M16.7536227,19.5292769 C16.2425325,20.0706494 14.9857718,20.0623671 14.8872463,19.1514808 C14.8443678,18.7551357 14.9919835,18.3395514 15.0649718,17.9294886 C15.1388227,17.514422 15.1919678,17.1161788 15.2649561,16.7517553 C15.7684541,16.1369631 17.2478894,16.0627671 17.3980071,17.08512 C17.5282816,17.9727122 17.1769718,19.0809082 16.7536227,19.5292769 Z M17.5091286,15.7741788 C16.7004776,15.4704063 15.7148776,15.833018 15.2876463,16.1779435 C15.2891129,16.1931278 15.2774659,16.1951984 15.2649561,16.19632 C15.2722031,16.1901945 15.2800541,16.184069 15.2876463,16.1779435 C15.28756,16.1766494 15.2874737,16.1755278 15.2871286,16.1741475 C15.2943757,16.0257553 15.3465718,15.9224847 15.3538188,15.7741788 L14.531709,15.7741788 C14.1891129,18.0534651 13.7828463,20.2689945 13.354062,22.4621788 L14.3094659,22.4621788 C14.4477639,21.6080612 14.5391286,20.7069239 14.7316933,19.9069867 C14.9498816,20.7483357 16.3746188,20.58752 16.9758659,20.2625239 C18.2163208,19.5917396 19.1731051,16.3992376 17.5091286,15.7741788 Z M22.0418188,17.3739671 L19.7977325,17.3739671 C19.8687365,16.8580455 20.3328933,16.2909631 21.0641561,16.2630102 C21.7524541,16.2366965 22.2452541,16.5157082 22.0418188,17.3739671 Z M21.1308463,15.6853161 C20.4404776,15.7384612 19.8569169,15.9371514 19.4421953,16.3741318 C18.9336071,16.9099827 18.5216463,18.0947906 18.642258,19.1737396 C18.814462,20.7130494 20.7310502,20.6578337 22.264062,20.2846965 C22.2901169,20.014571 22.3555129,19.7836141 22.3973561,19.5292769 C21.7659129,19.7655827 20.6693639,20.0954102 20.0198894,19.6848298 C19.5295051,19.3747592 19.526658,18.5895749 19.686611,17.9072298 C20.7169012,17.8744455 21.7877404,17.8807435 22.8195835,17.9072298 C22.8849796,17.4235749 23.0722816,16.8962651 22.90836,16.4185631 C22.6921561,15.7879827 21.91836,15.6246651 21.1308463,15.6853161 Z M12.7319365,15.7741788 C12.7060541,15.7778886 12.7077796,15.8092925 12.7096776,15.8407827 C12.4991678,17.4152063 12.2142894,18.9153475 11.9098267,20.395818 L12.8652306,20.395818 C13.0948071,18.8107827 13.357858,17.259222 13.6873404,15.7741788 L12.7319365,15.7741788 Z M37.6620776,15.7963514 C36.8176227,15.3742102 36.1147443,16.0826965 35.8401325,16.5073396 C35.9182973,16.2894102 35.9227835,15.9976298 35.9955992,15.7741788 L35.1513169,15.7741788 C34.9236384,17.3611122 34.6491129,18.9012847 34.3291208,20.395818 L35.3067835,20.395818 C35.3130816,19.783269 35.433262,19.3301553 35.5289404,18.7293396 C35.7333247,17.4466965 36.0332149,16.0399906 37.5287835,16.4629945 C37.5783914,16.2460141 37.599011,15.9999592 37.6620776,15.7963514 Z M26.9301325,19.3070337 C26.8420463,19.0795278 26.8191835,18.7038024 26.8411835,18.4182337 C26.8906188,17.7761788 27.124509,16.9945318 27.4855678,16.64072 C27.9838031,16.15232 28.9674188,16.2331592 29.7519992,16.5073396 C29.7762424,16.2429082 29.8293875,16.00712 29.8631208,15.7520063 C28.5764227,15.5418416 27.3552933,15.6725475 26.7078894,16.3518729 C26.0742031,17.0168769 25.6587051,18.5454024 25.9523835,19.507018 C26.2961875,20.6323827 27.8373953,20.6935514 29.0854424,20.2625239 C29.140658,20.0363122 29.1698188,19.7841318 29.2187365,19.5514494 C28.536909,19.9057788 27.2331286,20.0898886 26.9301325,19.3070337 Z M26.3968698,15.7741788 C25.5497404,15.4320141 24.8837012,16.0102259 24.5749247,16.5518573 C24.6448933,16.3108925 24.6737953,16.0286886 24.7303914,15.7741788 L23.8860227,15.7741788 C23.6796541,17.3750024 23.3753639,18.8779043 23.0861718,20.395818 L24.041662,20.395818 C24.17556,19.4947671 24.2333639,18.2802808 24.5304071,17.4183984 C24.7678345,16.729669 25.3891835,16.1429161 26.2857482,16.4629945 C26.2983443,16.2089161 26.3710737,16.014971 26.3968698,15.7741788 Z M10.9988541,13.9077161 C10.8623678,14.7933239 10.7086267,15.6616769 10.5544541,16.5295984 C9.56462667,16.5400376 8.55400706,16.5785161 7.59929333,16.5073396 C7.77960706,15.6583122 7.90893255,14.7581239 8.08812471,13.9077161 L7.02159922,13.9077161 C6.63974824,16.0738102 6.29249333,18.2743278 5.86621098,20.395818 L6.95490902,20.395818 C7.12573255,19.3074651 7.28542667,18.208069 7.51034431,17.1739827 C8.43874431,17.15112 9.55125412,17.1112612 10.4433325,17.1962416 C10.2594816,18.2713945 10.0371522,19.3081553 9.86563843,20.395818 L10.9544227,20.395818 C11.3041796,18.1978024 11.6728306,16.0185945 12.109811,13.9077161 L10.9988541,13.9077161 Z M13.7095992,14.8853788 C13.9000933,14.7542416 14.1453718,14.1565318 13.8651522,13.9077161 C13.7763757,13.8289475 13.627811,13.8060847 13.4207522,13.8411122 C13.2286188,13.8735514 13.1181012,13.9387749 13.0430424,14.0410965 C12.922258,14.2054494 12.8117404,14.7011827 12.998611,14.8853788 C13.1805639,15.0647435 13.5883835,14.9688063 13.7095992,14.8853788 Z" id="Fill-4" fill="#FEFEFE"></path>
                </g>
            </g>
        </g>
    </g>
</svg>