<?xml version="1.0" encoding="UTF-8"?>
<svg width="48px" height="36px" viewBox="0 0 48 36" version="1.1" xmlns="http://www.w3.org/2000/svg" xmlns:xlink="http://www.w3.org/1999/xlink">
    <!-- Generator: Sketch 51.2 (57519) - http://www.bohemiancoding.com/sketch -->
    <title>Visa</title>
    <desc>Created with Sketch.</desc>
    <defs></defs>
    <g id="gr1d_devportal_gravitee" stroke="none" stroke-width="1" fill="none" fill-rule="evenodd">
        <g id="components" transform="translate(-2078.000000, -1006.000000)">
            <g id="bandeiras-copy" transform="translate(2078.000000, 1006.000000)">
                <g id="Visa">
                    <polygon id="Shape" fill="#FAFAFA" points="0 9.55902024e-14 48 2.66453526e-14 48 36 0 36"></polygon>
                    <rect id="Rectangle-6" fill="#1A1F71" fill-rule="nonzero" x="0" y="0" width="48" height="5"></rect>
                    <rect id="Rectangle-6-Copy" fill="#F7B600" fill-rule="nonzero" x="0" y="31" width="48" height="5"></rect>
                    <path d="M38.4681585,19.6952889 C38.1773245,18.2566496 37.8913238,16.8417553 37.6053232,15.426689 C37.5911565,15.4251404 37.5771564,15.4235918 37.5631564,15.4220432 C37.0653219,16.8398626 36.5671541,18.257854 36.0623196,19.6952889 L38.4681585,19.6952889 Z M42,23.8195258 L39.3059938,23.8195258 C39.1874935,23.2415579 39.0711599,22.6735699 38.9504929,22.0844177 L38.7469925,22.0844177 C37.6408232,22.0844177 36.534654,22.0883752 35.4284848,22.0801161 C35.2659844,22.0790837 35.1966509,22.1319078 35.1459841,22.2884874 C34.9968171,22.7509993 34.8338167,23.2086934 34.664983,23.6636345 C34.6411496,23.728159 34.5544828,23.8114387 34.4961493,23.812127 C33.5304804,23.8212465 32.5646448,23.8186655 31.5688092,23.8186655 C31.6064759,23.7192116 31.634976,23.638685 31.6669761,23.5595349 C33.074646,20.0886305 34.4824826,16.6177261 35.8901525,13.1468217 C36.1461531,12.5155135 36.5729874,12.2180123 37.2358223,12.2164637 C37.9821574,12.214571 38.7284924,12.2188727 39.4748275,12.2133666 C39.6059945,12.2123342 39.6544946,12.2532858 39.6821613,12.3902499 C40.4358297,16.1352545 41.1946648,19.8790548 41.9534999,23.622855 C41.9643333,23.6756791 41.9845,23.7264384 42,23.7782301 L42,23.8195258 Z M6,12.541633 C6.02250005,12.4297905 6.04116676,12.3372193 6.06550015,12.2159131 L6.27783398,12.2159131 C7.82400422,12.2159131 9.3700078,12.2150528 10.916178,12.2162573 C11.7128466,12.2169455 12.2140144,12.6520991 12.3613481,13.4625274 C12.748349,15.5887402 13.1361832,17.7149531 13.5243508,19.841166 C13.5360174,19.9055184 13.5553508,19.9686665 13.5851842,20.0901447 C13.6978512,19.8010747 13.792018,19.562592 13.8836849,19.3230769 C14.7668536,17.0177439 15.650689,14.7129271 16.5293577,12.4058734 C16.5833578,12.2639194 16.6481913,12.210235 16.8016917,12.2117836 C17.6811937,12.2203868 18.5610291,12.2159131 19.4406978,12.2159131 L19.6531983,12.2159131 C19.6168649,12.3117536 19.5903648,12.3853976 19.5610314,12.4578372 C18.0475279,16.1887325 16.5330244,19.9191116 15.0223542,23.6512114 C14.9710208,23.7781957 14.9105206,23.8234489 14.774687,23.8225886 C13.8751849,23.8155339 12.9753495,23.8150177 12.0756807,23.8227606 C11.9221804,23.823793 11.8601802,23.7811208 11.8205135,23.6219602 C11.061345,20.5691749 10.2918433,17.5191426 9.53400818,14.4660131 C9.41767458,13.9973068 9.16800733,13.6769209 8.74533969,13.4711306 C7.90967109,13.0641958 7.03033572,12.8002474 6.13533365,12.5822405 C6.09700022,12.572949 6.05950014,12.5595279 6,12.541633 Z M23.411657,23.3928551 C23.5898241,22.5326999 23.7621578,21.7009354 23.9378249,20.8528248 C24.144492,20.9460843 24.3364924,21.0379672 24.5323262,21.1202145 C25.4953285,21.5250846 26.4916641,21.7026561 27.5213332,21.5001351 C27.8046671,21.4443859 28.0943345,21.3038084 28.3290017,21.1283016 C28.767836,20.7998286 28.8033361,20.1888242 28.3976685,19.8224968 C28.0911678,19.5454715 27.725167,19.3360678 27.3756661,19.113243 C26.8501649,18.7782316 26.2841636,18.5018945 25.7913291,18.1230063 C24.1371587,16.8509264 24.4384927,14.9267184 25.2999947,13.7819669 C25.9326628,12.9412551 26.7969981,12.473065 27.7765004,12.2227097 C29.2386705,11.8489835 30.6815071,11.9561803 32.1001771,12.4649779 C32.1431772,12.4804638 32.1845106,12.5005954 32.2438441,12.5258891 C32.0760104,13.3351129 31.90951,14.1386586 31.7393429,14.9595829 C31.5063424,14.873034 31.2856752,14.7828717 31.060008,14.7090556 C30.2948396,14.4583562 29.5125044,14.3404914 28.7170026,14.491909 C28.4633353,14.5400873 28.2018347,14.652274 27.9896676,14.8035195 C27.5198331,15.1383589 27.5006664,15.6948186 27.9545008,16.0496176 C28.3075016,16.3256106 28.7095026,16.5351863 29.0888368,16.7753897 C29.5876713,17.0909577 30.1136725,17.3691876 30.5781736,17.7319015 C31.6098426,18.537512 31.9026766,19.6356338 31.6080093,20.9078858 C31.2928419,22.2678911 30.3930065,23.0788356 29.177337,23.5654367 C28.1041678,23.9949121 26.9844986,24.0559954 25.8526626,23.9617035 C25.1413276,23.902513 24.4401594,23.7743242 23.7631578,23.5305075 C23.6511575,23.4899 23.5411573,23.4437865 23.411657,23.3928551 Z M23.8121246,12.2335498 C23.7039576,12.7568009 23.6001241,13.2595762 23.4961238,13.7621794 C22.8217889,17.0186902 22.1452874,20.2746849 21.4776192,23.5325722 C21.4331191,23.750235 21.3642856,23.8304176 21.135785,23.8255997 C20.3432832,23.8082211 19.5502814,23.8188892 18.7572795,23.8188892 L18.509779,23.8188892 C18.5849458,23.4498088 18.654446,23.103441 18.7261128,22.7579336 C19.4432811,19.3001061 20.1612828,15.8426228 20.8761178,12.3844512 C20.8981178,12.2777707 20.9187845,12.2127299 21.0466182,12.2134182 C21.9327869,12.2187522 22.8189556,12.2165154 23.7051243,12.2173757 C23.7309577,12.2173757 23.7566244,12.2249466 23.8121246,12.2335498 Z" id="Combined-Shape" fill="#1A1F71"></path>
                </g>
            </g>
        </g>
    </g>
</svg>